<?xml version="1.0" standalone="no"?>
<!DOCTYPE svg PUBLIC "-//W3C//DTD SVG 20010904//EN"
 "http://www.w3.org/TR/2001/REC-SVG-20010904/DTD/svg10.dtd">
<svg version="1.0" xmlns="http://www.w3.org/2000/svg"
 width="1024.000000pt" height="683.000000pt" viewBox="0 0 1024.000000 683.000000"
 preserveAspectRatio="xMidYMid meet">

<g transform="translate(0.000000,683.000000) scale(0.100000,-0.100000)"
fill="#000000" stroke="none">
<path d="M0 3415 l0 -3415 937 2 c738 2 937 6 941 16 2 6 8 12 14 12 6 0 8 -7
4 -15 -5 -13 22 -15 205 -15 197 0 248 8 168 25 -20 5 -29 11 -25 21 6 16 -10
19 -19 4 -7 -11 -62 -7 -73 5 -4 4 3 6 15 3 23 -6 41 17 20 26 -7 4 9 4 36 2
26 -2 50 0 53 5 3 5 13 9 22 9 15 0 15 -2 2 -10 -13 -9 -13 -12 4 -25 10 -8
39 -17 63 -21 34 -5 43 -10 38 -21 -4 -12 0 -14 15 -10 11 3 22 1 25 -4 3 -5
270 -9 606 -9 l600 0 22 23 c19 19 30 22 75 19 65 -5 68 -18 5 -21 -26 -1 -52
-6 -57 -11 -6 -6 47 -8 140 -7 122 2 148 5 146 16 -2 8 1 17 7 20 6 4 13 26
17 50 6 38 5 43 -9 38 -9 -3 -18 1 -21 10 -4 11 -2 14 9 10 8 -4 22 1 30 10
26 26 28 8 6 -71 -12 -42 -21 -78 -21 -81 0 -3 15 -5 34 -5 34 0 35 1 41 48 4
26 10 59 15 73 5 18 4 31 -3 39 -9 10 -9 11 3 8 16 -5 16 -13 4 -111 l-7 -57
36 0 35 0 0 81 c0 59 -4 82 -14 86 -8 3 -14 9 -14 14 0 5 9 4 20 -3 17 -11 20
-24 20 -95 l0 -83 28 0 27 0 0 105 c0 58 3 105 6 105 3 0 5 -39 5 -87 -2 -116
0 -123 36 -123 34 0 34 -14 4 135 -8 38 -13 71 -12 73 5 5 33 -88 46 -150 11
-55 13 -58 41 -58 16 0 29 2 29 6 0 3 -10 26 -22 52 -14 31 -23 73 -26 122 -5
83 4 93 12 15 11 -97 18 -128 38 -161 19 -32 20 -33 91 -33 40 0 96 7 124 15
51 15 93 12 93 -6 0 -6 1114 -10 2775 -10 l2775 0 0 1505 0 1505 -196 0 c-127
0 -193 -3 -189 -10 3 -5 1 -10 -4 -10 -6 0 -11 5 -11 10 0 6 -7 10 -15 10 -8
0 -15 -4 -15 -10 0 -5 -21 -10 -47 -10 -27 0 -57 -7 -67 -15 -12 -9 -42 -15
-74 -15 -64 0 -132 -18 -139 -37 -7 -18 -202 -19 -208 0 -6 16 -23 241 -18
246 1 2 6 -10 9 -27 l6 -31 31 16 c25 12 47 14 112 8 44 -4 114 -6 155 -5 41
1 122 -6 180 -15 89 -13 370 -34 463 -35 l27 0 0 1875 0 1875 -5120 0 -5120 0
0 -3415z m3235 2040 c64 -31 91 -66 92 -119 1 -21 -2 -34 -6 -30 -4 5 -19 26
-35 47 -15 20 -32 37 -37 37 -6 0 1 -15 15 -33 38 -49 74 -136 166 -392 45
-126 93 -257 108 -290 25 -58 76 -119 116 -142 18 -10 19 -15 8 -51 -19 -63
-15 -99 12 -117 24 -16 125 -40 211 -49 28 -3 -1 5 -64 19 -164 35 -174 45
-150 141 10 37 15 44 36 44 13 0 32 -4 42 -9 10 -6 123 -26 252 -46 890 -137
1181 -195 1714 -345 197 -56 286 -78 258 -64 -7 3 -9 12 -6 20 3 9 -1 14 -12
14 -14 0 -15 2 -2 15 9 8 17 19 19 25 2 6 25 16 51 23 56 14 299 -1 427 -27
41 -9 89 -18 105 -20 17 -2 64 -14 105 -26 41 -12 89 -25 105 -28 17 -2 33 -9
37 -15 3 -5 27 -10 52 -11 25 -1 41 -3 35 -5 -7 -2 -7 -7 2 -13 9 -6 4 -7 -16
-3 -23 4 -25 3 -10 -3 18 -8 164 -4 425 13 47 3 191 6 320 7 129 0 216 3 193
5 -26 3 -43 9 -43 17 0 13 -69 50 -78 42 -2 -3 -17 1 -33 9 -15 8 -43 15 -61
16 -18 0 -27 3 -20 6 6 2 12 9 12 14 0 14 -38 11 -43 -3 -2 -8 -8 -9 -13 -4
-5 5 -4 11 4 13 14 5 17 33 3 33 -13 0 -22 -30 -16 -58 5 -29 -11 -29 -20 1
l-7 22 -6 -23 c-8 -25 -9 -26 -48 -16 -18 5 -22 9 -13 15 7 4 17 5 22 2 4 -3
5 11 2 30 -6 29 -3 37 13 46 31 17 41 13 36 -11 -3 -13 2 -8 11 11 16 35 13
85 -6 96 -12 8 -12 25 0 25 14 0 42 -80 36 -101 -5 -14 0 -20 19 -25 14 -3 30
-3 35 1 6 3 11 2 11 -3 0 -5 37 -12 83 -16 80 -6 145 -16 257 -38 30 -5 75
-14 100 -18 25 -5 86 -18 135 -29 50 -12 119 -26 155 -31 36 -6 78 -15 94 -20
16 -6 45 -10 65 -9 l36 1 -27 11 c-16 6 -28 16 -28 23 0 18 -32 27 -42 12 -6
-8 -7 -5 -3 10 6 19 3 23 -12 20 -10 -2 -17 2 -16 7 1 6 -16 10 -37 10 -21 0
-36 3 -34 7 3 5 0 8 -6 8 -7 0 -10 5 -8 12 5 14 -69 53 -131 68 -23 6 -41 14
-38 16 20 20 341 -122 416 -184 24 -21 53 -45 65 -54 18 -15 19 -19 6 -29 -12
-8 -10 -9 8 -4 12 4 22 2 22 -4 0 -5 16 -19 35 -31 46 -28 45 -44 -1 -25 -25
10 -41 12 -49 5 -8 -6 -20 -3 -38 12 -24 19 -39 22 -120 21 -90 0 -91 0 -22 6
l70 6 -90 7 c-49 3 -175 17 -280 31 -177 23 -215 24 -565 22 -336 -2 -474 -9
-705 -32 -62 -6 -66 -7 -36 -14 19 -4 51 -5 70 -3 29 3 31 2 11 -4 -24 -8 -24
-8 9 -15 18 -4 48 -8 65 -9 25 -1 23 -2 -14 -8 -42 -7 -41 -7 24 -8 38 -1 67
-4 64 -7 -3 -3 -74 -12 -159 -21 -205 -20 -356 -42 -395 -59 -26 -11 -32 -20
-36 -51 -6 -48 -3 -52 20 -31 10 10 25 17 33 17 8 0 19 4 25 10 19 19 224 40
619 65 417 25 543 32 745 39 58 2 135 9 172 15 51 9 115 8 275 -4 114 -8 234
-19 266 -25 33 -6 62 -9 65 -6 3 3 -4 6 -16 6 -12 0 -22 5 -22 10 0 6 -8 10
-17 11 -10 0 -13 3 -6 5 14 6 73 -23 73 -35 0 -4 16 -36 37 -70 l36 -61 17 27
c18 31 16 35 -48 100 -34 33 -33 44 2 18 22 -17 38 -11 29 10 -3 11 2 15 18
15 44 0 68 -11 63 -28 -2 -10 1 -5 8 9 13 26 38 29 38 3 0 -8 5 -14 10 -14 6
0 10 -10 10 -22 0 -13 -25 -46 -66 -87 l-65 -65 15 -36 c8 -19 18 -49 21 -66
14 -72 -54 -364 -111 -475 -23 -47 -65 -89 -113 -113 -75 -39 -392 -110 -631
-141 -138 -19 -309 -16 -605 11 -88 7 -166 14 -174 14 -8 0 -12 2 -9 5 3 3 88
-2 189 -11 279 -24 514 -23 679 4 174 29 438 88 507 114 103 38 148 97 196
258 42 137 58 221 59 292 0 57 -5 76 -33 128 -18 34 -43 69 -55 77 -31 20
-164 31 -475 39 -196 5 -268 4 -273 -4 -10 -16 -457 -17 -473 -1 -21 21 -845
-19 -923 -45 -28 -9 -40 -22 -64 -69 -60 -120 -47 -183 87 -417 13 -23 15 -30
5 -20 -9 8 -43 65 -76 127 -62 113 -83 142 -121 163 -17 8 -21 20 -21 58 0 26
4 62 9 80 12 40 10 41 -127 67 l-94 18 6 31 5 31 -15 -27 c-8 -16 -17 -28 -20
-28 -3 0 -40 9 -82 19 -191 49 -782 155 -1007 181 -69 8 -106 17 -120 30 -11
9 -33 26 -50 36 -25 14 -23 11 10 -19 l40 -36 -102 -1 c-56 0 -104 4 -108 9
-3 5 -46 24 -95 42 -50 17 -89 34 -87 36 2 2 23 -4 47 -12 65 -23 72 -17 10 9
-30 13 -64 26 -75 30 -15 5 -16 9 -6 15 17 11 13 13 -104 51 -141 45 -293 80
-340 79 -32 -1 -18 -6 67 -27 59 -15 110 -31 115 -36 4 -5 -1 -6 -12 -2 -12 3
-39 8 -60 10 -22 3 -186 29 -365 60 -393 66 -488 80 -740 105 -321 33 -453 43
-495 39 -35 -4 -33 -5 15 -6 81 -3 488 -43 685 -68 238 -30 753 -118 765 -131
3 -3 -11 -3 -30 1 -49 9 -648 102 -745 115 -81 11 -293 32 -510 51 -341 29
-816 38 -1120 20 -169 -10 -410 -41 -368 -48 32 -5 49 -28 33 -47 -7 -8 -19
-15 -26 -15 -7 0 -20 -12 -28 -27 -12 -23 -15 -24 -16 -9 0 26 -10 15 -16 -18
-3 -17 0 -26 8 -26 7 0 -4 -11 -25 -25 -39 -27 -70 -77 -82 -133 -5 -22 -15
-36 -32 -43 -37 -14 -43 -11 -43 20 0 46 -14 73 -66 125 l-48 47 23 44 c13 24
57 77 99 117 110 105 301 297 492 495 227 235 358 341 550 446 149 82 418 171
624 207 159 28 169 28 299 25 104 -3 125 -6 172 -30z m2551 -185 c75 -30 155
-69 143 -70 -3 0 -50 18 -105 41 -140 57 -140 58 -127 58 7 1 47 -13 89 -29z
m224 -200 c3 -3 30 -22 60 -42 155 -104 430 -316 579 -449 71 -62 90 -84 77
-88 -9 -4 -65 -1 -125 4 l-109 11 -49 53 c-26 30 -59 65 -73 80 -13 14 -23 30
-22 35 2 5 -8 21 -22 35 -14 15 -31 41 -37 59 -6 18 -20 37 -30 43 -10 5 -19
15 -19 21 0 6 -10 21 -22 33 -13 13 -28 29 -35 37 -6 7 -31 29 -53 48 -23 19
-54 46 -69 60 -14 14 -29 25 -33 25 -7 0 -58 54 -58 62 0 5 25 -12 40 -27z
m761 -377 c24 -27 60 -67 78 -91 l33 -44 -59 44 c-109 81 -154 121 -140 130
24 16 44 7 88 -39z m-140 20 c13 -16 12 -17 -3 -4 -10 7 -18 15 -18 17 0 8 8
3 21 -13z m-371 -228 c122 -16 231 -35 345 -60 38 -8 74 -15 80 -15 5 0 3 -5
-5 -10 -11 -7 -7 -9 15 -5 31 6 150 -27 139 -37 -3 -4 2 -5 13 -2 17 5 192
-50 259 -81 17 -8 42 -19 55 -23 l23 -9 -23 -13 c-20 -10 -23 -10 -18 2 4 11
-3 15 -28 16 -59 2 -335 73 -405 104 -14 6 -33 10 -42 9 -10 -1 -18 3 -18 9 0
6 -4 9 -8 6 -5 -3 -42 4 -83 14 -41 11 -95 25 -122 31 -26 6 -45 14 -42 19 5
8 -56 22 -200 44 -122 19 -77 20 65 1z m17 -31 c-3 -3 -12 -4 -19 -1 -8 3 -5
6 6 6 11 1 17 -2 13 -5z m1159 -141 c4 -21 11 -43 16 -50 6 -7 5 -14 -3 -18
-16 -11 -29 14 -29 57 0 20 -6 39 -12 41 -8 3 -6 6 4 6 12 1 19 -10 24 -36z
m-5637 1 c8 -7 -114 -2 -139 6 -14 4 11 5 55 2 44 -2 82 -6 84 -8z m-129 -10
c8 -1 60 -3 114 -3 55 -1 96 -4 93 -8 -4 -3 -28 -6 -54 -5 -30 0 -41 -2 -30
-7 13 -4 -12 -13 -75 -26 -51 -10 -110 -24 -132 -32 -21 -7 -51 -13 -67 -13
-24 0 -29 4 -29 25 0 14 -5 25 -10 25 -6 0 -5 8 2 20 15 23 40 27 32 5 -5 -11
-2 -13 10 -9 9 3 16 10 16 15 0 5 15 10 33 10 l32 1 -30 9 c-21 5 -13 6 25 2
30 -3 62 -7 70 -9z m-290 -14 c0 -5 -4 -10 -10 -10 -5 0 -10 5 -10 10 0 6 5
10 10 10 6 0 10 -4 10 -10z m5984 -46 c4 -15 4 -29 1 -32 -8 -8 -25 19 -25 41
0 26 17 20 24 -9z m763 -10 c-3 -3 -12 -4 -19 -1 -8 3 -5 6 6 6 11 1 17 -2 13
-5z m-800 -71 c7 -6 18 -13 25 -16 7 -2 10 -7 6 -11 -8 -9 -135 64 -142 82 -6
13 88 -33 111 -55z m178 49 c-3 -3 -11 0 -18 7 -9 10 -8 11 6 5 10 -3 15 -9
12 -12z m-41 -1 c7 -10 -22 -24 -34 -16 -5 3 -11 1 -15 -5 -3 -5 -1 -10 4 -10
6 0 11 -5 11 -11 0 -8 -5 -8 -15 1 -20 17 -19 25 8 38 28 14 35 14 41 3z
m-5017 -34 c12 -13 -3 -14 -89 -4 -54 6 -88 15 -88 22 0 8 21 8 85 0 47 -7 88
-15 92 -18z m-846 8 c0 -5 5 -15 11 -22 10 -13 3 -33 -12 -33 -4 0 -6 8 -3 19
4 15 -3 20 -41 25 -26 4 -53 3 -65 -3 -16 -9 -20 -8 -18 7 1 16 10 19 64 18
35 -1 63 -5 64 -11z m5780 -22 c13 -17 13 -17 -6 -3 -11 8 -22 16 -24 17 -2 2
0 3 6 3 6 0 17 -8 24 -17z m-5114 -15 c-3 -8 -6 -5 -6 6 -1 11 2 17 5 13 3 -3
4 -12 1 -19z m1866 5 c-7 -2 -19 -2 -25 0 -7 3 -2 5 12 5 14 0 19 -2 13 -5z
m-1663 -20 c0 -5 -5 -15 -10 -23 -7 -11 -12 -12 -21 -3 -6 6 -8 16 -5 22 8 12
36 15 36 4z m-71 -39 c2 -2 -14 -4 -37 -4 -22 0 -43 4 -46 9 -6 8 73 3 83 -5z
m5038 -20 c-3 -3 -12 -4 -19 -1 -8 3 -5 6 6 6 11 1 17 -2 13 -5z m-80 -40 c-3
-3 -12 -4 -19 -1 -8 3 -5 6 6 6 11 1 17 -2 13 -5z m-4114 -71 c-3 -34 -2 -36
7 -14 8 18 13 22 22 13 8 -8 15 -9 25 -1 7 6 21 8 30 4 10 -5 50 -10 88 -12
39 -2 82 -8 96 -14 15 -6 51 -14 80 -18 66 -10 83 -14 89 -23 3 -4 27 -8 54
-9 41 -2 52 1 68 22 52 65 54 66 109 68 52 1 69 -8 69 -37 0 -7 -19 -21 -42
-31 -24 -11 -52 -26 -63 -35 -19 -15 -19 -15 10 -17 30 -1 30 -1 5 -9 -14 -4
-18 -9 -10 -9 8 -1 -14 -13 -50 -27 -67 -26 -117 -65 -151 -121 -12 -18 -24
-33 -29 -33 -4 0 -32 20 -62 44 -69 56 -139 91 -224 112 -38 9 -84 25 -101 35
-18 10 -33 14 -33 8 0 -13 -51 0 -69 18 -8 9 -25 12 -45 9 -22 -4 -25 -3 -11
2 16 7 12 10 -22 15 -22 4 -56 4 -74 1 -32 -6 -33 -6 -14 9 19 16 19 16 -10
17 -29 1 -29 2 -7 12 12 6 22 15 22 20 0 4 9 8 20 8 11 0 20 4 20 8 0 11 74 5
116 -8 18 -6 39 -8 45 -4 6 3 15 0 20 -7 6 -10 9 -6 9 14 0 15 4 27 8 27 4 0
7 -17 5 -37z m1702 -33 c-30 -12 -18 -15 270 -60 387 -61 850 -149 953 -181
49 -16 51 -46 7 -119 -31 -51 -41 -60 -66 -60 -16 0 -29 2 -29 5 0 11 33 71
56 102 l24 31 -53 11 c-28 7 -77 17 -107 23 -30 6 -81 17 -113 25 -32 8 -86
18 -120 23 -34 5 -91 15 -127 24 -182 41 -311 59 -474 63 -152 3 -170 2 -181
-14 -9 -12 -10 -25 -4 -41 10 -25 5 -42 -13 -42 -7 0 -9 18 -6 49 4 41 2 49
-11 48 -33 -2 -89 14 -101 28 -7 8 -22 15 -34 15 -11 0 -27 4 -35 9 -11 7 -4
12 27 21 64 17 50 30 -28 27 -39 -1 -70 -1 -70 1 0 12 62 21 150 21 64 0 97
-4 85 -9z m3608 -27 c-7 -2 -19 -2 -25 0 -7 3 -2 5 12 5 14 0 19 -2 13 -5z
m-7255 -65 c11 -18 23 -44 27 -58 4 -17 -2 -12 -17 15 -26 43 -40 75 -34 75 3
0 13 -15 24 -32z m2637 12 c3 -5 1 -10 -4 -10 -6 0 -11 5 -11 10 0 6 2 10 4
10 3 0 8 -4 11 -10z m929 -36 c14 -6 17 -14 12 -42 -6 -41 -28 -68 -48 -58
-51 26 -59 33 -44 39 23 9 20 37 -4 37 -13 0 -20 -7 -20 -20 0 -11 -4 -20 -8
-20 -15 0 -53 60 -46 72 7 11 122 6 158 -8z m50 -51 c-8 -33 -23 -63 -24 -47
0 27 13 74 21 74 5 0 6 -12 3 -27z m186 -22 c0 -83 -26 -98 -29 -16 -1 43 2
55 14 55 11 0 15 -11 15 -39z m-790 13 c0 -14 -3 -14 -15 -4 -8 7 -15 14 -15
16 0 2 7 4 15 4 8 0 15 -7 15 -16z m3213 -64 c37 -123 60 -261 45 -275 -3 -3
-8 23 -12 57 -4 35 -18 97 -31 138 -28 92 -41 159 -28 145 6 -5 17 -35 26 -65z
m533 13 c19 -64 44 -272 33 -278 -3 -3 -11 39 -18 93 -6 53 -20 130 -30 170
-22 85 -9 98 15 15z m100 -128 c8 -60 16 -193 18 -295 l5 -185 -9 175 c-10
185 -31 358 -54 434 -8 25 -11 48 -8 51 12 11 33 -69 48 -180z m57 118 c27
-114 56 -530 36 -518 -5 4 -9 59 -9 123 0 142 -26 345 -56 445 -3 9 -1 17 4
17 6 0 17 -30 25 -67z m81 -16 c21 -101 36 -314 34 -481 -2 -114 -3 -122 -5
-41 -5 193 -24 411 -43 505 -23 112 -22 103 -11 95 6 -3 17 -38 25 -78z m66
41 c24 -86 40 -296 38 -493 l-1 -200 -8 245 c-4 148 -14 279 -23 330 -26 138
-29 160 -23 160 4 0 11 -19 17 -42z m579 9 c0 -21 -1 -21 -9 -2 -12 28 -12 37
0 30 6 -3 10 -16 9 -28z m-3650 14 c12 -8 13 -18 5 -47 -12 -50 -34 -63 -69
-40 -25 16 -25 19 -11 35 22 25 20 41 -6 42 -15 1 -11 4 12 9 50 11 54 11 69
1z m1970 -121 c29 -113 58 -287 49 -296 -3 -2 -12 43 -22 100 -9 57 -32 151
-50 208 -31 96 -36 132 -15 111 5 -5 22 -60 38 -123z m79 58 c29 -99 49 -199
56 -283 4 -56 0 -44 -18 56 -13 70 -27 132 -30 138 -7 10 -46 144 -46 156 0 3
4 5 9 5 4 0 18 -33 29 -72z m92 1 c29 -95 48 -198 54 -294 5 -71 4 -65 -14 45
-11 69 -26 143 -34 165 -8 22 -20 59 -26 83 -6 24 -14 50 -17 58 -3 8 0 14 6
14 5 0 20 -32 31 -71z m1016 -1 c13 -59 17 -132 19 -383 l3 -310 -8 280 c-7
253 -20 386 -45 466 -4 11 -2 19 4 19 5 0 17 -33 27 -72z m65 30 c20 -74 28
-225 27 -468 l-2 -235 -7 285 c-6 221 -11 305 -26 373 -19 88 -13 123 8 45z
m79 -33 c7 -37 13 -168 15 -340 l3 -280 -8 255 c-5 162 -13 286 -23 340 -19
100 -20 107 -8 95 4 -6 14 -37 21 -70z m-7361 56 c8 -5 10 -14 6 -21 -5 -8 -4
-11 3 -7 5 4 17 4 25 1 13 -5 13 -8 -4 -25 -22 -22 -25 -39 -5 -39 9 0 12 7 9
20 -4 16 -2 19 11 14 9 -3 16 -14 16 -24 0 -10 5 -20 11 -22 5 -2 12 -16 14
-31 3 -15 6 -38 8 -52 3 -14 7 -28 11 -32 3 -3 0 -13 -7 -21 -9 -13 -9 -14 1
-8 7 4 12 2 13 -6 1 -7 2 -28 4 -45 2 -22 -1 -31 -9 -27 -6 3 -2 -2 8 -10 11
-9 14 -16 8 -16 -9 0 -10 -22 -6 -84 9 -116 1 -154 -34 -158 -34 -4 -44 -45
-16 -65 20 -14 35 -17 33 -5 -4 22 2 42 11 37 13 -8 13 -54 -1 -129 -13 -71
-30 -121 -22 -63 4 23 2 37 -5 37 -6 0 -16 9 -22 21 -10 19 -10 20 9 10 29
-16 31 -14 31 23 0 21 -6 36 -15 40 -8 3 -15 0 -16 -7 0 -7 -4 -3 -9 8 -6 14
-9 16 -10 5 -4 -40 -7 -57 -14 -77 -6 -19 -4 -23 13 -23 24 0 28 -15 7 -23 -8
-3 -17 -1 -20 6 -3 9 -8 8 -15 -3 -6 -8 -11 -10 -11 -5 0 6 -7 -1 -15 -15
l-15 -25 6 30 c6 28 5 29 -8 10 -8 -11 -29 -46 -47 -77 -39 -70 -51 -77 -17
-10 30 60 56 122 51 122 -8 0 -85 -119 -86 -132 0 -10 -2 -10 -6 -1 -2 7 5 30
17 50 l22 38 -41 -42 c-48 -49 -55 -44 -11 7 46 53 92 120 84 120 -20 0 -82
-54 -109 -95 -16 -24 -33 -45 -37 -45 -7 0 53 94 79 123 15 16 14 16 -18 6
-19 -6 -42 -20 -51 -31 -20 -23 -23 -17 -8 12 6 11 35 31 64 45 30 14 59 32
66 40 11 13 7 15 -26 15 -22 -1 -50 -7 -64 -15 -29 -17 -60 -19 -60 -5 0 6 8
10 18 10 10 0 27 7 38 15 10 8 30 15 44 15 21 1 18 3 -15 16 -22 9 -50 18 -62
21 -26 6 -30 21 -8 30 9 3 24 -2 34 -11 21 -19 82 -32 108 -22 14 6 8 13 -32
36 -28 16 -58 30 -67 30 -9 0 -24 10 -32 22 -22 31 -20 45 2 18 11 -14 26 -21
40 -18 22 3 21 4 -13 52 -51 72 -43 77 14 9 43 -52 111 -105 111 -87 0 12
-102 124 -109 119 -9 -5 -10 2 -15 65 -1 25 1 56 6 69 6 16 4 29 -4 39 -11 13
-11 14 0 8 17 -10 43 23 36 46 -3 9 -1 19 5 22 5 3 12 -17 16 -46 3 -29 9 -62
12 -73 5 -17 4 -18 -11 -6 -21 18 -21 2 1 -29 12 -18 13 -22 3 -14 -19 13 -60
16 -60 4 0 -5 10 -16 23 -25 13 -8 40 -42 62 -75 44 -67 57 -73 25 -10 -30 60
-20 71 13 13 21 -37 26 -41 21 -19 -5 21 -4 27 5 22 6 -4 11 -13 11 -21 0 -7
6 -15 14 -18 8 -3 20 -28 27 -56 14 -55 16 -57 43 -38 14 10 17 21 11 45 -7
35 -14 39 -34 20 -11 -11 -11 -9 -2 9 6 12 16 23 22 25 8 3 9 15 4 38 -7 32
-8 33 -22 14 -15 -18 -15 -18 -8 6 12 43 18 90 10 90 -4 0 -14 -8 -21 -17 -11
-14 -11 -10 1 18 7 20 11 47 8 60 -7 24 -7 24 -20 -6 l-13 -30 6 35 c7 39 7
38 5 63 0 10 -5 15 -11 12 -6 -4 -10 7 -10 24 0 38 -17 41 -23 4 -2 -16 -3
-11 -2 9 3 38 -9 60 -18 36 -3 -8 -6 -6 -6 5 -1 9 -5 17 -11 17 -5 0 -11 -30
-12 -67 l-2 -68 -3 68 c-4 64 -16 88 -26 50 -4 -17 -5 -17 -6 0 0 10 10 22 24
29 19 9 29 8 50 -6 33 -22 32 -8 -2 21 -33 29 -53 29 -89 1 l-29 -23 19 30
c34 52 41 56 76 44 17 -6 34 -9 37 -5 4 3 1 6 -5 6 -7 0 -12 5 -12 10 0 12 10
13 29 1z m5812 -18 c22 -57 68 -252 73 -314 5 -53 2 -45 -19 51 -13 63 -28
122 -33 130 -5 8 -17 41 -26 72 -9 32 -19 64 -22 73 -3 8 -1 15 5 15 6 0 16
-12 22 -27z m114 -58 c30 -95 55 -223 53 -275 -1 -34 -1 -34 -5 -5 -9 63 -42
202 -61 255 -27 78 -34 110 -23 110 5 0 21 -38 36 -85z m454 53 c34 -108 65
-288 49 -288 -4 0 -8 12 -8 28 -1 38 -30 163 -64 270 -4 13 -3 22 3 22 5 0 14
-15 20 -32z m95 -20 c23 -74 46 -203 45 -246 -1 -26 -5 -15 -14 38 -7 42 -23
109 -35 150 -12 41 -24 83 -26 93 -3 9 -1 17 4 17 5 0 17 -24 26 -52z m113
-38 c12 -46 27 -142 33 -214 13 -168 13 -396 0 -396 -6 0 -10 28 -10 65 0 134
-22 374 -46 492 -28 142 -28 146 -11 141 6 -3 22 -42 34 -88z m86 10 c9 -36
19 -105 22 -155 l5 -90 -24 130 c-13 72 -27 146 -31 165 -13 63 12 19 28 -50z
m77 33 c15 -60 38 -263 30 -268 -3 -2 -12 41 -19 97 -7 55 -20 123 -27 152
-16 61 -17 66 -5 66 5 0 14 -21 21 -47z m680 -28 c6 -33 13 -175 15 -315 l3
-255 -8 230 c-7 202 -16 306 -37 395 -4 17 -2 22 5 15 6 -5 16 -37 22 -70z
m-3600 50 c0 -8 -4 -15 -10 -15 -5 0 -10 7 -10 15 0 8 5 15 10 15 6 0 10 -7
10 -15z m1806 -76 c28 -80 64 -253 63 -297 0 -15 -11 24 -24 86 -14 63 -36
142 -50 178 -14 35 -28 78 -32 96 -10 56 15 19 43 -63z m97 4 c34 -112 54
-202 61 -278 4 -45 0 -33 -18 50 -13 61 -37 151 -55 201 -33 96 -36 114 -23
114 5 0 21 -39 35 -87z m1762 35 c10 -68 11 -78 20 -294 6 -128 5 -186 -3
-200 -9 -14 -11 26 -12 171 0 168 -6 251 -26 348 -3 15 -1 27 4 27 6 0 13 -24
17 -52z m-1956 -51 c33 -102 75 -307 69 -334 -2 -10 -8 5 -12 32 -13 88 -46
218 -71 280 -32 80 -40 115 -27 115 6 0 24 -42 41 -93z m-95 -27 c36 -111 71
-281 62 -303 -2 -7 -5 -4 -5 7 -2 37 -53 251 -65 271 -7 11 -18 40 -25 64 -7
23 -15 49 -18 57 -3 8 0 14 5 14 6 0 27 -49 46 -110z m-1894 79 c0 -6 9 -24
21 -40 14 -20 16 -29 7 -29 -15 1 -59 66 -50 74 9 10 22 7 22 -5z m395 -9 c3
-5 1 -10 -4 -10 -6 0 -11 5 -11 10 0 6 2 10 4 10 3 0 8 -4 11 -10z m561 -14
c9 -24 -23 -86 -45 -86 -11 0 -23 5 -26 10 -4 6 -10 8 -15 5 -4 -3 -16 -2 -27
2 -16 6 -15 8 7 13 14 3 26 14 29 25 2 11 8 26 13 33 14 16 57 15 64 -2z
m-965 -41 c7 -13 3 -12 -10 5 -11 14 -21 30 -21 35 0 11 14 -7 31 -40z m4034
-117 l4 -133 -9 114 c-4 62 -11 130 -14 150 -5 27 -4 32 4 19 6 -10 12 -77 15
-150z m-7418 105 c-3 -10 -5 -4 -5 12 0 17 2 24 5 18 2 -7 2 -21 0 -30z m3993
33 c0 -3 -4 -8 -10 -11 -5 -3 -10 -1 -10 4 0 6 5 11 10 11 6 0 10 -2 10 -4z
m1208 -88 c31 -116 53 -220 48 -225 -5 -6 -18 38 -42 147 -9 41 -22 85 -30 97
-15 24 -19 63 -6 63 4 0 18 -37 30 -82z m-2608 42 c0 -5 -5 -10 -11 -10 -5 0
-7 5 -4 10 3 6 8 10 11 10 2 0 4 -4 4 -10z m896 -39 c27 -24 42 -41 33 -38
-21 7 -108 70 -108 79 -2 16 30 -1 75 -41z m94 42 c-8 -4 -20 -13 -26 -21 -12
-17 -34 -8 -34 14 0 10 11 14 38 13 20 0 30 -3 22 -6z m945 -2 c3 -5 1 -12 -5
-16 -5 -3 -10 1 -10 9 0 18 6 21 15 7z m-1965 -16 c0 -2 -10 -10 -22 -16 -21
-11 -22 -11 -9 4 13 16 31 23 31 12z m5180 -31 c0 -19 -4 -33 -8 -30 -8 5 -4
66 4 66 2 0 4 -16 4 -36z m-4141 -20 c10 -9 -35 -3 -49 6 -11 8 -7 9 15 4 17
-4 32 -8 34 -10z m-3752 -16 c-3 -8 -6 -5 -6 6 -1 11 2 17 5 13 3 -3 4 -12 1
-19z m3752 -14 c10 -9 -35 -3 -49 6 -11 8 -7 9 15 4 17 -4 32 -8 34 -10z
m4046 6 c-3 -5 -18 -10 -33 -9 -24 0 -25 1 -7 9 28 12 47 12 40 0z m-4785 -28
c68 -30 123 -74 172 -139 46 -59 73 -103 64 -103 -3 0 -12 12 -21 28 -8 15
-26 40 -39 56 l-24 29 -37 -74 c-21 -41 -41 -96 -46 -124 l-8 -50 3 52 c2 34
15 78 40 129 l37 77 -28 29 c-50 52 -49 52 -87 -127 -36 -174 -34 -164 -35
-135 0 14 11 79 25 145 36 171 36 163 1 181 -38 20 -42 14 -58 -94 -10 -65
-10 -106 -1 -185 7 -56 11 -131 10 -167 -1 -63 -2 -62 -8 25 -22 277 -22 309
-7 375 9 36 14 67 12 69 -3 2 -21 4 -42 5 l-38 1 3 -170 c3 -123 9 -193 23
-254 26 -112 18 -115 -11 -4 -17 67 -23 129 -27 261 l-6 173 -31 -3 -31 -3 1
-100 c1 -83 6 -113 29 -175 30 -81 86 -282 80 -288 -2 -2 -10 23 -19 55 -9 32
-36 119 -60 193 -32 97 -46 157 -49 213 -2 42 -7 80 -10 83 -10 10 -67 -17
-67 -31 0 -6 17 -81 39 -166 30 -120 51 -179 95 -266 50 -100 76 -135 76 -102
0 5 5 7 11 3 8 -4 9 4 5 27 l-5 34 11 -32 c13 -38 25 -42 31 -10 4 18 5 17 8
-8 1 -16 6 8 9 55 l6 85 2 -92 c1 -51 6 -93 11 -93 5 0 16 44 26 98 18 109 23
127 24 95 1 -12 -6 -57 -14 -100 -8 -43 -15 -89 -14 -103 0 -23 1 -23 9 -5 7
16 9 14 10 -15 l0 -35 18 23 c19 25 62 108 87 168 15 36 115 158 115 140 0 -4
-25 -36 -55 -71 -30 -36 -55 -72 -55 -80 0 -8 -20 -54 -45 -101 -53 -101 -55
-130 -4 -52 20 29 52 62 72 72 19 11 33 25 31 31 -3 6 18 30 45 53 29 25 51
37 53 30 6 -16 -88 -111 -129 -132 -36 -18 -114 -127 -104 -145 11 -17 80 7
110 39 27 29 81 60 103 60 7 0 -7 -12 -32 -26 -25 -14 -56 -36 -70 -49 -14
-13 -44 -31 -67 -40 -24 -10 -43 -22 -43 -27 0 -6 16 -7 43 -2 53 9 67 9 93 0
17 -5 22 -3 20 11 -1 12 7 18 29 20 32 2 63 9 89 19 9 3 16 2 16 -4 0 -5 -17
-13 -37 -18 l-38 -8 35 -6 c19 -4 27 -8 17 -9 -11 0 -35 -8 -54 -17 -29 -14
-40 -15 -75 -5 -51 16 -132 -2 -145 -32 -8 -18 -10 -18 -25 -4 -15 15 -16 15
-21 -4 -3 -12 -10 -18 -16 -15 -5 4 -12 2 -16 -4 -10 -16 -38 -12 -31 5 3 9 0
15 -8 15 -8 0 -16 16 -19 41 -8 59 -42 81 -50 32 -4 -26 -4 -26 -6 4 -1 24 -5
31 -16 27 -18 -7 -38 -66 -29 -87 8 -21 11 -21 31 -2 8 9 18 13 22 9 3 -3 -4
-13 -16 -21 -13 -9 -23 -21 -23 -29 0 -19 37 -36 63 -29 20 6 21 5 5 -8 -13
-10 -15 -16 -6 -25 7 -7 18 -12 24 -12 7 0 16 -9 19 -20 8 -26 17 -25 53 5 32
27 56 33 49 13 -2 -7 11 -46 30 -87 18 -40 39 -98 47 -127 8 -30 24 -70 35
-90 12 -20 20 -38 18 -41 -8 -8 -38 49 -66 125 -51 138 -65 172 -74 172 -16 0
15 -196 39 -242 19 -37 64 -161 60 -166 -2 -1 -12 17 -22 41 -11 28 -23 43
-31 40 -9 -4 -13 5 -13 25 0 16 -6 45 -14 63 -7 19 -19 75 -26 124 -7 50 -15
85 -17 79 -2 -7 3 -65 12 -130 8 -65 15 -141 15 -169 0 -46 33 -167 58 -210 8
-15 12 -13 40 10 44 37 40 27 -9 -20 -24 -24 -37 -32 -33 -21 5 13 4 17 -4 12
-8 -5 -10 -2 -5 10 5 13 2 15 -16 9 -21 -6 -22 -5 -11 14 9 18 7 33 -10 79
-14 36 -25 98 -30 167 -14 167 -22 235 -30 235 -17 0 -26 -245 -10 -255 6 -3
7 -23 4 -43 -3 -20 2 -84 10 -141 9 -57 14 -106 12 -108 -5 -5 -10 20 -26 117
-6 36 -16 80 -22 99 -9 31 -11 32 -27 17 -13 -14 -16 -38 -15 -134 0 -83 -2
-105 -8 -77 -11 56 -10 253 1 274 13 23 34 182 29 213 -3 15 -15 -9 -37 -77
-31 -96 -56 -261 -62 -410 -2 -52 -10 -67 -24 -45 -3 6 -2 10 3 10 5 0 12 64
16 143 6 142 21 219 65 342 24 68 24 68 12 60 -5 -3 -26 -58 -47 -123 -20 -64
-51 -148 -67 -187 -16 -38 -33 -92 -37 -120 l-8 -50 0 45 c-1 25 7 68 18 95
39 105 120 338 120 348 0 51 -125 -181 -167 -310 -20 -62 -39 -111 -41 -109
-4 5 34 148 54 200 14 35 56 113 116 214 11 17 16 32 11 32 -4 0 -35 -44 -67
-98 -50 -81 -115 -170 -159 -217 -21 -22 18 43 48 80 48 59 165 254 157 259
-12 7 -159 -131 -193 -183 -67 -98 -129 -201 -129 -213 0 -7 13 -30 29 -51
l29 -38 17 51 c9 28 19 50 21 48 2 -2 -4 -27 -13 -56 l-17 -52 29 -30 c27 -28
52 -32 42 -6 -3 6 2 20 9 31 13 18 14 17 8 -10 -12 -61 -10 -67 26 -86 l35
-19 6 32 6 33 2 -38 c1 -31 6 -39 28 -48 14 -5 32 -8 39 -5 8 3 16 1 20 -5 4
-6 10 -7 17 0 15 12 66 18 67 9 1 -30 -2 -31 -64 -25 -164 15 -306 147 -401
370 -15 37 -25 70 -22 74 4 3 7 -1 7 -10 0 -32 22 -28 56 10 l35 38 -35 -53
-34 -54 17 -39 c24 -53 29 -56 40 -26 9 24 39 69 109 167 14 19 64 74 111 122
47 48 83 89 80 92 -2 2 -40 -27 -84 -65 -77 -68 -132 -105 -141 -96 -2 2 13
16 33 30 56 38 189 164 182 172 -4 3 -53 -13 -109 -35 -98 -39 -161 -76 -187
-111 -6 -8 -30 -28 -52 -43 -23 -16 -41 -36 -41 -44 0 -21 -6 -12 -14 21 -3
15 -3 27 1 26 20 -3 34 2 28 10 -6 11 37 47 67 57 11 3 55 27 97 53 43 26 100
55 127 65 49 19 78 36 71 42 -2 2 -43 -10 -92 -26 -49 -17 -94 -30 -99 -30
-13 0 118 63 159 76 53 17 32 29 -64 36 -52 4 -96 10 -99 13 -3 3 38 5 91 5
54 0 97 4 97 9 0 5 -34 12 -75 16 -119 11 -145 24 -42 22 48 -1 87 1 87 6 0 4
-9 8 -20 8 -11 1 -24 3 -30 4 -5 1 -17 3 -25 4 -8 0 -15 10 -15 21 0 13 5 18
15 14 8 -4 15 -3 15 0 0 7 -71 44 -119 61 -35 13 -35 14 -8 14 15 1 59 -15 97
-34 39 -19 70 -32 70 -29 0 4 9 -1 19 -10 11 -10 26 -16 33 -13 8 4 7 6 -4 6
-10 1 -18 5 -18 11 0 5 -34 28 -75 51 -41 22 -92 59 -113 81 -40 43 -135 118
-150 118 -5 0 -15 -21 -21 -47 l-12 -46 43 -39 c40 -36 41 -38 11 -23 -17 8
-35 19 -38 25 -10 17 -25 1 -26 -28 -1 -18 -3 -21 -6 -9 -7 26 24 157 58 251
54 148 170 305 261 352 90 47 203 53 288 16z m975 -6 c271 -34 319 -38 417
-28 48 4 95 5 105 1 10 -3 21 -1 25 5 5 8 13 8 27 -1 11 -7 22 -9 25 -5 2 4
25 6 51 4 25 -2 45 -6 43 -7 -2 -2 -54 -11 -116 -20 -96 -14 -130 -15 -220 -5
-166 18 -577 72 -581 76 -8 8 35 4 224 -20z m-310 -18 c6 -20 8 -20 12 -5 2 9
8 17 13 17 4 0 6 -10 2 -22 -4 -17 -2 -20 13 -15 13 5 16 3 11 -8 -3 -10 1
-15 12 -15 14 0 14 -2 3 -9 -12 -8 -12 -12 -2 -25 11 -14 11 -16 -4 -16 -15 0
-14 -4 5 -36 15 -24 19 -39 12 -46 -6 -6 -17 4 -33 32 -19 34 -25 38 -31 23
-6 -16 -7 -16 -13 4 -5 14 -12 20 -23 16 -11 -5 -14 -2 -9 10 4 11 -1 17 -16
20 -22 3 -22 4 2 14 16 6 20 12 13 17 -18 11 -15 26 4 19 12 -4 14 0 8 21 -8
32 11 35 21 4z m1058 -5 c-7 -2 -19 -2 -25 0 -7 3 -2 5 12 5 14 0 19 -2 13 -5z
m-806 -19 c-3 -3 -12 -4 -19 -1 -8 3 -5 6 6 6 11 1 17 -2 13 -5z m2850 -76
c-2 -13 -4 -3 -4 22 0 25 2 35 4 23 2 -13 2 -33 0 -45z m83 20 c0 -49 -7 -47
-15 5 -4 23 -2 37 4 37 6 0 11 -19 11 -42z m-523 -35 c-2 -16 -4 -5 -4 22 0
28 2 40 4 28 2 -13 2 -35 0 -50z m90 0 c-2 -16 -4 -5 -4 22 0 28 2 40 4 28 2
-13 2 -35 0 -50z m92 20 c-1 -43 -2 -45 -9 -18 -11 44 -11 65 0 65 6 0 9 -21
9 -47z m181 7 c0 -22 -2 -40 -4 -40 -2 0 -6 18 -8 40 -2 22 0 40 4 40 5 0 8
-18 8 -40z m1278 -102 c21 -87 36 -228 24 -228 -30 1 -36 24 -48 167 -7 81
-15 162 -19 178 l-6 30 15 -32 c8 -17 23 -69 34 -115z m-2001 45 c-3 -10 -5
-4 -5 12 0 17 2 24 5 18 2 -7 2 -21 0 -30z m-470 -55 c-3 -8 -6 -5 -6 6 -1 11
2 17 5 13 3 -3 4 -12 1 -19z m-2299 -25 c-7 -16 -35 -74 -64 -129 -31 -60 -58
-128 -65 -165 -7 -35 -14 -58 -17 -51 -8 26 22 121 76 232 51 108 69 140 78
140 2 0 -2 -12 -8 -27z m2222 -33 c6 -11 8 -20 6 -20 -3 0 -10 9 -16 20 -6 11
-8 20 -6 20 3 0 10 -9 16 -20z m-5303 -62 c-3 -7 -5 -2 -5 12 0 14 2 19 5 13
2 -7 2 -19 0 -25z m5430 -96 c34 -34 55 -58 45 -53 -24 13 -104 99 -136 146
l-28 40 28 -35 c15 -19 56 -63 91 -98z m-5821 11 c15 -52 13 -73 -7 -73 -6 0
-8 10 -4 23 5 17 4 19 -4 7 -9 -12 -14 -13 -30 -3 -11 7 -38 16 -61 19 -50 8
-60 21 -23 29 15 4 43 13 62 21 29 13 32 18 26 42 -6 26 -6 26 9 7 9 -11 23
-44 32 -72z m391 45 c-3 -8 -6 -5 -6 6 -1 11 2 17 5 13 3 -3 4 -12 1 -19z m0
-50 c-3 -8 -6 -5 -6 6 -1 11 2 17 5 13 3 -3 4 -12 1 -19z m7888 -29 c12 -19
-3 -22 -27 -5 l-22 16 21 0 c12 0 25 -5 28 -11z m-7430 -89 c116 -28 266 -66
335 -85 154 -43 985 -243 1060 -255 30 -5 73 -16 95 -24 22 -8 76 -22 120 -31
44 -9 84 -20 89 -26 15 -14 -7 -11 -129 17 -60 13 -118 25 -127 25 -11 0 -15
6 -11 16 5 12 1 14 -15 9 -11 -4 -58 2 -104 13 -46 11 -141 34 -213 51 -209
50 -564 130 -640 144 -38 8 -97 21 -130 29 -79 21 -541 128 -580 134 -16 3
-40 17 -52 32 l-21 27 56 -13 c32 -7 152 -36 267 -63z m7209 56 c-71 -26 -129
-66 -98 -67 16 0 15 -2 -4 -10 -13 -5 -21 -13 -17 -18 3 -5 -4 -12 -15 -16
-11 -3 -20 -11 -20 -16 0 -5 -3 -8 -7 -7 -14 4 -85 -75 -147 -162 -33 -47 -73
-98 -89 -115 -24 -25 -23 -21 7 19 27 36 33 52 25 62 -8 9 -5 15 10 24 12 6
21 7 21 3 0 -4 11 8 24 27 21 31 22 36 7 43 -11 5 -9 6 7 3 18 -3 28 4 48 37
14 23 34 54 45 70 22 30 15 35 -18 12 -20 -14 -23 -14 -32 2 -14 26 16 73 49
75 39 2 44 3 58 11 7 5 12 3 12 -3 0 -8 6 -9 18 -4 43 19 148 53 162 53 8 0
-13 -10 -46 -23z m-7667 -18 c-3 -8 -6 -5 -6 6 -1 11 2 17 5 13 3 -3 4 -12 1
-19z m5063 -7 c0 -8 6 -11 15 -7 9 3 15 0 15 -9 0 -8 5 -15 11 -15 5 0 7 -5 4
-11 -4 -5 1 -19 10 -29 18 -20 13 -40 -11 -40 -8 0 -12 -4 -9 -10 8 -13 -1
-13 -26 0 -10 6 -19 7 -19 3 0 -5 16 -17 34 -27 19 -10 45 -30 58 -43 l23 -25
-38 25 c-82 55 -150 72 -372 93 l-140 13 135 -4 c74 -3 164 -7 200 -10 36 -3
60 -3 53 1 -7 3 -9 12 -6 20 3 9 -1 14 -12 14 -14 0 -15 3 -6 14 9 10 8 16 -4
26 -19 16 -11 30 15 23 11 -3 20 -1 20 5 0 5 11 9 25 8 14 0 25 -7 25 -15z
m489 -7 c14 -12 -19 -1 -35 12 -18 14 -18 14 6 3 14 -6 27 -13 29 -15z m70
-20 c10 -9 -35 -3 -49 6 -11 8 -7 9 15 4 17 -4 32 -8 34 -10z m96 -13 c26 -6
31 -9 15 -9 -14 -1 -43 3 -65 7 -26 6 -31 9 -15 9 14 1 43 -3 65 -7z m-5772
-42 c11 -8 -28 -196 -45 -216 -18 -22 -27 -14 -34 32 -3 25 -10 45 -15 45 -5
0 -9 7 -9 16 0 8 -4 12 -10 9 -14 -9 -12 7 4 27 15 21 26 13 26 -18 0 -13 5
-26 10 -29 6 -4 10 7 10 24 0 17 5 31 10 31 6 0 10 8 10 17 0 15 2 14 16 -3
12 -14 14 -15 11 -3 -3 9 -1 21 5 27 7 7 5 17 -6 33 -9 13 -16 30 -16 39 1 11
4 9 12 -5 6 -11 16 -23 21 -26z m5875 24 c-10 -2 -28 -2 -40 0 -13 2 -5 4 17
4 22 1 32 -1 23 -4z m-1473 -34 c-55 -5 -135 -16 -178 -25 -85 -17 -116 -13
-46 7 71 19 138 27 234 26 l90 0 -100 -8z m-4468 -21 c-3 -8 -6 -5 -6 6 -1 11
2 17 5 13 3 -3 4 -12 1 -19z m-56 -35 c-9 -16 -10 -16 -11 -1 0 9 3 25 7 35 7
16 8 17 11 1 2 -10 -1 -25 -7 -35z m-139 -31 c-4 -34 0 -50 17 -72 11 -16 21
-41 21 -56 0 -15 8 -37 18 -48 17 -20 17 -20 -8 -5 -40 25 -62 82 -67 171 -4
70 -3 79 10 67 10 -9 13 -27 9 -57z m2638 -8 l45 -12 -52 -1 -53 -1 1 43 c1
37 2 39 8 12 5 -24 13 -31 51 -41z m5194 31 c-15 -20 -24 -38 -20 -42 7 -7
-23 -43 -36 -43 -5 0 -1 12 8 28 42 68 60 92 67 92 4 0 -4 -16 -19 -35z m136
11 c0 -2 -8 -10 -17 -17 -16 -13 -17 -12 -4 4 13 16 21 21 21 13z m-608 -143
c-1 -76 -4 -142 -5 -147 -4 -12 -17 -13 -247 -20 -196 -5 -219 -2 -80 12 71 7
75 8 75 32 0 21 -4 25 -27 23 -16 -1 -28 0 -28 2 0 2 11 21 25 41 61 90 35
181 -43 149 -27 -12 -32 -19 -32 -50 0 -25 4 -35 16 -35 9 0 18 9 21 20 5 20
15 25 26 14 9 -9 -19 -71 -48 -110 -13 -17 -22 -33 -20 -35 2 -3 -14 -5 -35
-5 -34 -1 -37 0 -24 13 38 38 60 116 45 156 -8 22 -17 27 -43 27 -25 0 -30 3
-18 10 8 6 38 8 65 6 33 -4 42 -3 25 3 -18 5 7 10 85 15 61 4 117 9 125 10 8
2 44 4 80 5 l65 1 -3 -137z m-3022 117 c0 -5 -7 -10 -15 -10 -8 0 -15 5 -15
10 0 6 7 10 15 10 8 0 15 -4 15 -10z m2490 -20 c-25 -4 -37 -8 -27 -8 9 -1 17
-8 17 -14 0 -9 4 -8 10 2 8 13 10 12 11 -5 1 -16 2 -17 6 -3 2 9 12 16 23 15
10 -1 16 -7 13 -14 -3 -7 -8 -11 -12 -9 -4 3 -5 -11 -3 -30 3 -26 9 -34 24
-34 11 0 22 8 25 20 6 24 33 27 33 4 0 -8 -4 -13 -9 -10 -5 3 -12 -10 -15 -29
-4 -21 -14 -36 -26 -40 -11 -3 -19 -9 -19 -13 5 -34 -26 -46 -34 -14 -3 10 -6
5 -7 -13 -2 -29 -3 -28 -12 10 -5 22 -9 63 -9 90 1 67 -9 80 -61 79 l-43 -1
40 13 c22 7 58 12 80 12 l40 -1 -45 -7z m-176 -18 c6 13 2 -9 -13 -67 -9 -31
-10 -30 -29 32 -11 34 1 49 25 31 7 -6 13 -4 17 4z m56 -9 c0 -10 -4 -14 -8
-8 -4 6 -11 13 -16 18 -5 4 -2 7 7 7 10 0 17 -8 17 -17z m-427 -18 c-4 -11 -1
-13 11 -9 11 4 15 13 11 23 -5 12 -4 13 6 4 9 -9 9 -17 -4 -36 -9 -13 -14 -33
-12 -43 2 -10 4 -25 4 -33 1 -7 18 -29 38 -47 21 -20 31 -34 22 -34 -12 0 -12
-2 1 -10 13 -8 13 -10 -1 -10 -10 0 -20 11 -23 25 -4 14 -11 25 -16 25 -5 0
-7 -7 -3 -15 3 -10 0 -15 -8 -13 -25 5 -22 -46 3 -68 18 -16 33 -20 71 -16 26
2 47 8 47 13 0 4 -6 7 -12 5 -7 -1 -10 -1 -5 1 4 3 7 14 8 26 0 16 4 12 13
-13 15 -42 14 -42 -21 -46 -15 -1 -53 -6 -83 -9 l-55 -6 -3 156 c-2 105 0 155
7 151 6 -4 8 -13 4 -21z m97 21 c0 -2 -9 -6 -20 -9 -11 -3 -18 -1 -14 4 5 9
34 13 34 5z m180 -6 c-10 -6 -11 -10 -2 -10 8 0 12 -18 11 -57 0 -59 -16 -157
-18 -116 -2 34 -45 59 -77 45 -13 -7 -27 -19 -30 -27 -8 -20 -24 -19 -24 1 0
9 -18 32 -40 51 -45 39 -50 53 -20 53 12 0 20 -7 20 -16 0 -9 7 -14 18 -12 12
3 17 13 17 41 0 36 1 37 40 38 22 1 54 5 70 9 43 11 52 11 35 0z m1460 7 c0
-2 -10 -12 -22 -23 l-23 -19 19 23 c18 21 26 27 26 19z m-380 -21 c0 -2 -8
-10 -17 -17 -16 -13 -17 -12 -4 4 13 16 21 21 21 13z m-160 -31 c0 -8 -4 -15
-10 -15 -5 0 -10 7 -10 15 0 8 5 15 10 15 6 0 10 -7 10 -15z m-780 -62 c-9
-15 -10 -12 -8 17 3 46 12 62 16 28 2 -15 -2 -35 -8 -45z m80 48 c0 -29 -27
-34 -33 -5 -3 18 0 24 14 24 12 0 19 -7 19 -19z m-6613 -38 c-3 -10 -5 -2 -5
17 0 19 2 27 5 18 2 -10 2 -26 0 -35z m2498 27 c4 -6 -5 -10 -19 -10 -14 0
-26 5 -26 10 0 6 9 10 19 10 11 0 23 -4 26 -10z m5095 -10 c0 -5 -5 -10 -11
-10 -5 0 -7 5 -4 10 3 6 8 10 11 10 2 0 4 -4 4 -10z m-5081 -19 c11 -7 4 -11
-25 -16 -21 -3 -47 -8 -56 -10 -12 -2 -18 3 -18 14 0 13 10 18 43 19 23 1 48
-2 56 -7z m48 3 c-3 -3 -12 -4 -19 -1 -8 3 -5 6 6 6 11 1 17 -2 13 -5z m391
-19 c-3 -3 -9 2 -12 12 -6 14 -5 15 5 6 7 -7 10 -15 7 -18z m5037 -25 c15 -30
20 -86 9 -115 -15 -38 -206 -105 -301 -105 -25 0 -71 11 -106 26 -59 25 -68
26 -171 20 -104 -6 -340 -30 -402 -41 -72 -12 -338 -25 -346 -17 -6 6 42 12
119 17 70 4 166 11 213 16 47 5 140 14 208 20 108 11 122 14 122 31 0 12 7 18
21 18 15 0 19 -5 15 -15 -4 -13 8 -15 74 -15 43 0 82 5 85 10 11 17 -41 29
-126 29 -44 0 -83 2 -86 5 -13 13 62 34 140 39 68 4 85 2 78 -7 -30 -36 80
-86 160 -73 34 5 215 67 238 82 9 5 11 20 7 47 -4 22 -4 43 -1 49 12 18 35 9
50 -21z m-4748 -17 c25 5 93 -15 93 -26 0 -3 -17 -1 -37 4 -21 4 -46 6 -55 3
-19 -6 -108 33 -108 48 0 5 18 -1 39 -13 26 -14 49 -20 68 -16z m2477 22 c3
-8 1 -15 -4 -15 -6 0 -10 7 -10 15 0 8 2 15 4 15 2 0 6 -7 10 -15z m1866 5 c0
-5 -5 -10 -11 -10 -5 0 -7 5 -4 10 3 6 8 10 11 10 2 0 4 -4 4 -10z m-1120 -50
c5 0 13 12 19 28 10 25 11 25 6 2 -2 -14 -5 -38 -5 -55 l-1 -30 -11 25 -11 25
-7 -25 c-6 -18 -8 -10 -8 30 1 30 3 43 5 28 2 -16 8 -28 13 -28z m150 29 c0
-13 -4 -18 -12 -13 -8 5 -9 2 -5 -9 3 -10 3 -17 -2 -17 -5 0 -11 14 -13 30 -4
24 -1 30 14 30 12 0 18 -7 18 -21z m-4193 -51 c-2 -13 -4 -3 -4 22 0 25 2 35
4 23 2 -13 2 -33 0 -45z m928 52 c3 -6 -1 -7 -9 -4 -18 7 -21 14 -7 14 6 0 13
-4 16 -10z m-3305 -10 c0 -5 -5 -10 -11 -10 -5 0 -7 5 -4 10 3 6 8 10 11 10 2
0 4 -4 4 -10z m7360 6 c0 -2 -8 -10 -17 -17 -16 -13 -17 -12 -4 4 13 16 21 21
21 13z m-4181 -86 c44 -44 77 -80 75 -80 -14 0 -64 32 -64 41 0 6 -26 35 -57
65 -31 30 -52 54 -45 54 7 0 48 -36 91 -80z m171 70 c8 -5 11 -10 5 -10 -5 0
-17 5 -25 10 -8 5 -10 10 -5 10 6 0 17 -5 25 -10z m4525 -29 c-3 -6 -11 -11
-17 -11 -6 0 -6 6 2 15 14 17 26 13 15 -4z m-5375 5 c0 -2 -25 -20 -55 -41
-30 -21 -56 -45 -58 -54 -3 -9 -5 -1 -6 17 -1 22 4 32 14 32 8 0 31 11 51 25
34 23 54 31 54 21z m713 -30 c10 -8 17 -22 15 -32 -2 -14 -11 -8 -37 25 -33
42 -25 44 22 7z m-39 -140 c41 -33 75 -76 62 -76 -3 0 -22 16 -43 35 -21 19
-44 33 -51 30 -7 -3 -10 -1 -7 4 3 5 0 13 -6 17 -12 7 -52 92 -63 134 -4 14 9
-5 28 -41 21 -40 52 -80 80 -103z m4087 120 c-7 -8 -10 -20 -6 -26 9 -15 -4
-12 -20 4 -12 12 -11 16 8 29 26 17 35 14 18 -7z m-666 -14 c-3 -3 -11 0 -18
7 -9 10 -8 11 6 5 10 -3 15 -9 12 -12z m-251 -13 c-29 -12 -36 -10 -22 5 7 7
19 11 27 8 11 -4 10 -7 -5 -13z m66 17 c0 -2 -7 -7 -16 -10 -8 -3 -12 -2 -9 4
6 10 25 14 25 6z m117 -2 c-3 -3 -12 -4 -19 -1 -8 3 -5 6 6 6 11 1 17 -2 13
-5z m-3177 -34 c0 -5 -5 -10 -11 -10 -5 0 -7 5 -4 10 3 6 8 10 11 10 2 0 4 -4
4 -10z m-953 -52 c-3 -8 -6 -5 -6 6 -1 11 2 17 5 13 3 -3 4 -12 1 -19z m2836
5 c-7 -2 -19 -2 -25 0 -7 3 -2 5 12 5 14 0 19 -2 13 -5z m338 -19 c0 -5 -10
-12 -23 -16 -27 -7 -130 -9 -108 -1 43 14 44 16 15 24 -20 5 -5 6 43 5 40 -2
72 -7 73 -12z m-1549 -32 c-3 -27 2 -33 35 -50 21 -11 53 -23 71 -27 33 -7 41
-19 20 -29 -7 -4 -3 -4 10 -2 12 2 20 1 17 -4 -6 -10 83 -17 412 -32 159 -7
270 -15 248 -17 -56 -4 -552 18 -655 30 -107 13 -192 49 -220 94 -26 42 -26
43 13 60 43 19 53 14 49 -23z m3006 11 c-10 -2 -26 -2 -35 0 -10 3 -2 5 17 5
19 0 27 -2 18 -5z m-100 -10 c-15 -2 -42 -2 -60 0 -18 2 -6 4 27 4 33 0 48 -2
33 -4z m-7548 -7 c0 -2 -7 -6 -15 -10 -8 -3 -15 -1 -15 4 0 6 7 10 15 10 8 0
15 -2 15 -4z m3891 -29 c12 -22 12 -22 -10 -3 -11 11 -21 23 -21 28 0 14 19
-1 31 -25z m3527 26 c-15 -2 -42 -2 -60 0 -18 2 -6 4 27 4 33 0 48 -2 33 -4z
m-3621 -18 c9 -25 -4 -29 -17 -6 -7 15 -7 21 0 21 6 0 13 -7 17 -15z m3491 8
c-10 -2 -26 -2 -35 0 -10 3 -2 5 17 5 19 0 27 -2 18 -5z m-903 -13 c-4 -6 -49
-9 -108 -8 l-102 2 80 6 c133 11 136 11 130 0z m103 3 c-15 -2 -42 -2 -60 0
-18 2 -6 4 27 4 33 0 48 -2 33 -4z m1392 -28 c-116 -13 -388 -28 -310 -18 87
11 330 31 380 31 31 0 1 -6 -70 -13z m-387 -32 c-18 -2 -48 -2 -65 0 -18 2 -4
4 32 4 36 0 50 -2 33 -4z m-135 -10 c-16 -2 -40 -2 -55 0 -16 2 -3 4 27 4 30
0 43 -2 28 -4z m-145 -10 c-13 -2 -35 -2 -50 0 -16 2 -5 4 22 4 28 0 40 -2 28
-4z m-2679 -35 c8 -42 -5 -54 -43 -39 -53 23 -47 71 9 71 23 0 29 -5 34 -32z
m2534 25 c-10 -2 -28 -2 -40 0 -13 2 -5 4 17 4 22 1 32 -1 23 -4z m-155 -10
c-7 -2 -19 -2 -25 0 -7 3 -2 5 12 5 14 0 19 -2 13 -5z m-2183 -17 c0 -18 51
-35 138 -46 l67 -9 -77 4 c-42 3 -95 12 -117 21 -44 17 -63 44 -31 44 11 0 20
-6 20 -14z m-892 -105 c-15 -24 -30 -28 -23 -6 3 8 7 23 10 32 4 11 9 13 16 6
7 -7 7 -17 -3 -32z m-3778 -41 c0 -5 -4 -10 -10 -10 -5 0 -10 5 -10 10 0 6 5
10 10 10 6 0 10 -4 10 -10z m-161 -42 c-1 -16 -3 -18 -6 -6 -2 9 -12 19 -21
21 -12 3 -10 5 6 6 17 1 22 -4 21 -21z m3915 3 c3 -5 -1 -14 -8 -20 -12 -10
-13 -8 -9 8 6 23 9 25 17 12z m-3739 -11 c-3 -5 -14 -10 -23 -9 -14 0 -13 2 3
9 27 11 27 11 20 0z m1465 1 c0 -6 -4 -12 -8 -15 -5 -3 -9 1 -9 9 0 8 4 15 9
15 4 0 8 -4 8 -9z m50 1 c0 -5 -10 -18 -22 -29 -30 -28 -249 -84 -255 -65 -3
7 -24 12 -56 13 -38 0 -47 3 -32 9 17 7 16 9 -10 10 -16 0 -48 9 -70 20 -22
11 -47 20 -55 20 -11 1 -10 4 4 9 11 4 44 -1 80 -12 116 -36 119 -37 132 -26
7 6 23 9 36 6 21 -4 20 -4 -4 -6 -28 -1 -51 -21 -24 -21 8 0 16 -4 18 -10 4
-12 128 20 183 47 22 10 39 25 38 31 -2 7 6 12 17 12 11 0 20 -4 20 -8z
m-1430 -12 c0 -5 -4 -10 -10 -10 -5 0 -10 5 -10 10 0 6 5 10 10 10 6 0 10 -4
10 -10z m1212 -10 c86 -24 94 -30 40 -30 -22 0 -44 5 -47 10 -3 6 -14 10 -23
10 -9 1 -30 7 -47 15 -45 20 -6 18 77 -5z m-1262 0 c0 -5 -2 -10 -4 -10 -3 0
-8 5 -11 10 -3 6 -1 10 4 10 6 0 11 -4 11 -10z m3660 0 c0 -5 -5 -10 -11 -10
-5 0 -7 5 -4 10 3 6 8 10 11 10 2 0 4 -4 4 -10z m-3096 -50 c12 0 26 -3 30 -7
4 -4 15 -8 23 -8 9 0 18 -5 20 -12 3 -8 -17 -12 -69 -11 -40 0 -67 2 -60 5 19
7 14 23 -7 23 -11 0 -23 5 -27 11 -4 6 -19 9 -36 5 -18 -3 -27 -2 -23 4 3 6 0
11 -7 12 -7 1 12 4 42 7 44 5 58 3 73 -11 10 -10 28 -18 41 -18z m131 24 c35
-11 73 -14 130 -10 l80 5 -60 -13 -60 -12 39 -8 c21 -4 73 -5 115 -2 80 5 79
2 -2 -9 -26 -3 -45 -10 -42 -15 7 -12 -52 -5 -90 10 -16 6 -45 14 -62 17 -18
3 -33 10 -33 14 0 5 -8 9 -17 9 -23 1 -83 28 -63 29 8 0 38 -6 65 -15z m-765
-4 c-19 -13 -30 -13 -30 0 0 6 10 10 23 10 18 0 19 -2 7 -10z m1093 3 c-7 -2
-19 -2 -25 0 -7 3 -2 5 12 5 14 0 19 -2 13 -5z m-666 -9 c-3 -3 -12 -4 -19 -1
-8 3 -5 6 6 6 11 1 17 -2 13 -5z m-57 -19 c0 -8 -9 -15 -20 -15 -13 0 -18 5
-14 15 4 8 12 15 20 15 8 0 14 -7 14 -15z m-310 1 c0 -2 -7 -6 -15 -10 -8 -3
-15 -1 -15 4 0 6 7 10 15 10 8 0 15 -2 15 -4z m95 -6 c-3 -5 -10 -10 -16 -10
-5 0 -9 5 -9 10 0 6 7 10 16 10 8 0 12 -4 9 -10z m388 -19 c8 -8 8 -11 -1 -11
-7 0 -12 -6 -11 -12 1 -7 1 -21 0 -31 -1 -14 -4 -15 -20 -5 -11 7 -17 16 -15
20 3 4 0 8 -7 8 -7 0 -9 3 -6 6 4 4 14 1 23 -7 14 -12 16 -11 13 6 -4 17 -15
21 -69 25 -45 4 -56 7 -35 10 48 8 116 3 128 -9z m220 12 c-7 -2 -21 -2 -30 0
-10 3 -4 5 12 5 17 0 24 -2 18 -5z m485 -20 c-10 -2 -26 -2 -35 0 -10 3 -2 5
17 5 19 0 27 -2 18 -5z m-185 -10 c-13 -2 -33 -2 -45 0 -13 2 -3 4 22 4 25 0
35 -2 23 -4z m115 0 c-10 -2 -26 -2 -35 0 -10 3 -2 5 17 5 19 0 27 -2 18 -5z
m2071 -48 c29 -19 61 -35 70 -35 9 0 21 -4 27 -9 11 -12 133 -19 138 -8 3 4 3
2 2 -5 -2 -9 -21 -12 -65 -11 -69 2 -161 40 -216 89 -36 31 -26 27 44 -21z
m331 5 c-19 -11 -42 -19 -50 -19 -8 0 3 9 25 20 52 24 70 24 25 -1z m-3081
-27 c-9 -11 -10 -14 -1 -9 6 4 12 2 12 -3 0 -16 -16 -13 -34 4 -8 8 -21 16
-28 16 -7 1 3 5 22 8 43 8 47 6 29 -16z m-789 -3 c0 -5 -12 -10 -27 -10 -22 0
-25 2 -13 10 20 13 40 13 40 0z m140 -70 c0 -5 -5 -10 -11 -10 -5 0 -7 5 -4
10 3 6 8 10 11 10 2 0 4 -4 4 -10z m670 -15 c0 -8 -7 -15 -15 -15 -9 0 -12 6
-9 15 4 8 10 15 15 15 5 0 9 -7 9 -15z m-875 -15 c3 -6 -1 -7 -9 -4 -18 7 -21
14 -7 14 6 0 13 -4 16 -10z m195 -14 c0 -3 -4 -8 -10 -11 -5 -3 -10 -1 -10 4
0 6 5 11 10 11 6 0 10 -2 10 -4z m667 -2 c-3 -3 -12 -4 -19 -1 -8 3 -5 6 6 6
11 1 17 -2 13 -5z m197 -110 c4 -10 1 -14 -6 -12 -15 5 -23 28 -10 28 5 0 13
-7 16 -16z m-157 -60 c-3 -3 -12 -4 -19 -1 -8 3 -5 6 6 6 11 1 17 -2 13 -5z
m153 -19 c0 -8 -7 -15 -15 -15 -9 0 -12 6 -9 15 4 8 10 15 15 15 5 0 9 -7 9
-15z m-193 -11 c-3 -3 -12 -4 -19 -1 -8 3 -5 6 6 6 11 1 17 -2 13 -5z m2688
-3 c-6 -5 -23 -11 -39 -13 -45 -5 -43 -25 1 -21 32 3 35 2 20 -7 -20 -13 -104
-3 -90 10 4 5 22 16 38 24 33 17 85 22 70 7z m145 -18 c0 -7 -4 -13 -10 -13
-5 0 -10 4 -10 9 0 5 -8 12 -17 14 -10 3 -6 4 10 4 15 -1 27 -7 27 -14z m80 2
c10 -12 10 -15 -4 -15 -9 0 -16 7 -16 15 0 8 2 15 4 15 2 0 9 -7 16 -15z
m-2727 -2 c-7 -2 -19 -2 -25 0 -7 3 -2 5 12 5 14 0 19 -2 13 -5z m2572 -3 c3
-5 -3 -10 -15 -10 -12 0 -18 5 -15 10 3 6 10 10 15 10 5 0 12 -4 15 -10z m-5
-36 c0 -8 8 -14 18 -15 11 -1 9 -4 -8 -9 -14 -4 -19 -8 -12 -9 6 -1 12 -7 12
-15 0 -8 4 -16 9 -18 19 -6 -18 -40 -40 -36 -21 3 -22 4 -4 18 15 12 17 12 10
1 -5 -9 -4 -12 3 -7 11 6 2 49 -17 86 -6 12 -3 16 10 17 11 1 19 -5 19 -13z
m74 0 c3 -8 2 -12 -4 -9 -6 3 -10 10 -10 16 0 14 7 11 14 -7z m-2864 -9 c-7
-9 -15 -13 -17 -11 -7 7 7 26 19 26 6 0 6 -6 -2 -15z m57 9 c-3 -3 -12 -4 -19
-1 -8 3 -5 6 6 6 11 1 17 -2 13 -5z m2665 -6 c-17 -17 -15 -38 4 -59 19 -21
12 -49 -11 -49 -10 0 -15 10 -15 28 0 45 -15 58 -34 31 -14 -20 -14 -24 -2
-27 8 -2 17 -10 20 -18 3 -9 1 -12 -4 -9 -21 13 -31 -7 -15 -31 9 -14 13 -29
10 -33 -3 -5 1 -12 7 -14 20 -8 -10 -26 -33 -20 -12 4 -17 13 -16 31 3 36 -20
39 -25 2 -3 -17 0 -30 6 -30 6 0 5 -4 -2 -9 -11 -7 -11 -9 2 -14 9 -4 16 -17
16 -29 -1 -21 -2 -22 -14 -5 -7 9 -22 17 -34 17 -25 0 -38 -31 -17 -42 8 -5
15 -13 15 -17 0 -13 -48 -19 -59 -8 -8 8 -11 7 -11 -1 0 -7 -5 -12 -11 -12 -5
0 -7 5 -3 11 3 6 0 16 -7 21 -10 7 -5 8 14 3 18 -3 26 -2 23 4 -4 5 -1 13 5
16 5 4 8 13 5 20 -3 8 0 16 7 18 22 7 -11 36 -35 29 -14 -3 -19 -1 -14 6 4 7
17 12 29 12 21 1 21 1 -3 15 l-25 14 26 1 c15 0 39 6 54 14 26 14 26 15 7 25
-12 6 -28 11 -38 11 -31 0 -8 11 32 15 22 2 43 4 47 4 5 1 5 6 2 11 -3 6 2 10
11 10 10 0 14 3 11 7 -4 3 7 14 23 24 17 11 30 23 30 29 0 5 8 10 17 10 13 0
14 -3 5 -12z m243 -35 c3 -10 2 -19 -2 -20 -5 -2 -7 -20 -5 -40 3 -20 0 -33
-5 -30 -11 7 -16 107 -4 107 5 0 12 -8 16 -17z m71 -39 c-4 -18 -11 -34 -17
-34 -6 0 -6 6 0 18 5 10 8 27 7 38 -2 10 -1 23 2 29 10 16 14 -15 8 -51z
m-156 15 c0 -11 -4 -17 -10 -14 -5 3 -10 15 -10 26 0 11 5 17 10 14 6 -3 10
-15 10 -26z m261 12 c-5 -4 -13 -25 -17 -48 -3 -23 -13 -44 -20 -47 -11 -4
-12 -1 -5 12 5 9 12 36 16 59 5 32 10 40 22 36 9 -4 11 -8 4 -12z m-3073 -66
c-9 -9 -37 -9 -36 0 0 6 4 9 9 8 5 -2 9 5 9 15 0 31 15 36 18 7 2 -15 2 -28 0
-30z m122 29 c0 -9 -24 -30 -43 -37 -25 -9 -12 -27 14 -20 19 5 20 4 9 -16 -7
-14 -17 -20 -26 -17 -8 3 -13 2 -10 -3 11 -18 -56 -29 -81 -13 -23 15 -4 48
30 50 30 3 31 2 12 -12 -20 -15 -20 -15 3 -9 27 7 29 23 3 30 -22 6 -17 33 6
33 8 0 11 -5 7 -12 -5 -10 -4 -10 6 -1 7 6 19 9 26 6 8 -3 17 2 20 11 6 15 24
23 24 10z m2693 -24 c-3 -11 -7 -20 -9 -20 -2 0 -4 9 -4 20 0 11 4 20 9 20 5
0 7 -9 4 -20z m-59 2 c2 -4 -2 -15 -9 -25 -12 -16 -13 -16 -18 2 -7 26 14 44
27 23z m-69 -12 c-3 -5 -10 -10 -16 -10 -5 0 -9 5 -9 10 0 6 7 10 16 10 8 0
12 -4 9 -10z m459 -37 c-7 -16 -14 -34 -14 -40 0 -7 -6 -13 -12 -13 -9 0 -8
-4 2 -10 8 -5 10 -10 4 -10 -20 0 -23 13 -10 39 8 14 17 34 20 44 3 9 10 17
15 17 5 0 3 -12 -5 -27z m-464 7 c0 -5 -2 -10 -4 -10 -3 0 -8 5 -11 10 -3 6
-1 10 4 10 6 0 11 -4 11 -10z m202 -44 c2 -12 -4 -20 -15 -22 -14 -2 -16 1 -7
11 6 7 7 21 4 31 -5 13 -4 16 4 9 6 -5 12 -18 14 -29z m165 19 c0 -8 -4 -15
-9 -15 -4 0 -8 7 -8 15 0 8 4 15 8 15 5 0 9 -7 9 -15z m-237 1 c0 -2 -9 -6
-20 -9 -11 -3 -18 -1 -14 4 5 9 34 13 34 5z m-79 -33 c-8 -15 -10 -15 -11 -2
0 17 10 32 18 25 2 -3 -1 -13 -7 -23z m-2566 7 c-3 -5 -14 -10 -24 -10 -9 0
-26 -7 -37 -15 -10 -8 -32 -14 -49 -14 l-30 1 30 8 c17 5 48 15 70 24 49 18
48 18 40 6z m2475 -10 c0 -5 -5 -10 -11 -10 -5 0 -7 5 -4 10 3 6 8 10 11 10 2
0 4 -4 4 -10z m-45 -20 c-3 -5 -12 -10 -18 -10 -7 0 -6 4 3 10 19 12 23 12 15
0z m323 -14 c-7 -8 -15 -12 -17 -11 -5 6 10 25 20 25 5 0 4 -6 -3 -14z m309 8
c-3 -3 -12 -4 -19 -1 -8 3 -5 6 6 6 11 1 17 -2 13 -5z m-127 -19 c-7 -9 -15
-13 -17 -11 -7 7 7 26 19 26 6 0 6 -6 -2 -15z m115 -5 c3 -5 1 -10 -4 -10 -6
0 -11 5 -11 10 0 6 2 10 4 10 3 0 8 -4 11 -10z m-671 -45 c-8 -19 0 -19 19 -1
12 12 14 10 14 -14 0 -19 -6 -29 -16 -29 -9 0 -45 -3 -80 -6 -58 -5 -63 -4
-51 10 7 9 19 14 26 11 7 -3 16 -1 19 4 4 6 18 10 32 10 18 0 24 4 19 15 -3 9
0 15 9 15 9 0 12 -6 9 -15z m636 -20 c0 -8 -4 -15 -10 -15 -5 0 -10 7 -10 15
0 8 5 15 10 15 6 0 10 -7 10 -15z m-225 -25 c3 -6 -1 -7 -9 -4 -18 7 -21 14
-7 14 6 0 13 -4 16 -10z m-461 -21 c-4 -8 1 -9 17 -4 l24 7 -22 -19 -22 -20
30 0 c19 0 25 3 17 9 -9 5 -9 8 -1 8 20 0 41 -29 36 -50 -3 -11 -14 -20 -24
-20 -11 0 -18 -5 -16 -12 1 -7 -5 -13 -13 -14 -37 -3 -41 -5 -36 -13 3 -4 17
-6 31 -3 15 2 25 0 25 -7 0 -6 10 -11 23 -12 18 -1 17 -2 -7 -9 -16 -5 -33 -7
-38 -4 -4 3 -8 0 -8 -5 0 -6 -8 -12 -17 -12 -17 -1 -17 -2 0 -6 19 -5 23 -28
5 -39 -6 -4 -8 -3 -4 4 3 6 2 13 -4 17 -16 10 -50 -5 -50 -22 0 -10 6 -13 16
-9 8 3 13 2 9 -3 -3 -5 8 -12 24 -16 27 -6 28 -8 18 -34 -11 -30 -10 -30 -124
-23 -37 3 -25 35 17 46 25 7 25 7 3 -6 -22 -13 -22 -14 -3 -26 28 -17 40 -15
40 7 0 12 8 21 23 24 19 4 18 4 -5 6 -24 1 -28 5 -28 31 0 17 -4 30 -8 30 -4
0 -8 10 -9 22 -1 11 -8 25 -15 29 -10 7 -9 9 5 9 9 0 17 5 17 10 0 6 5 10 11
10 5 0 8 -4 5 -9 -3 -5 3 -11 14 -14 27 -7 25 7 -2 25 -19 13 -21 18 -10 31 8
10 9 17 3 21 -6 4 -7 14 -4 23 5 13 2 15 -22 9 -24 -6 -27 -5 -17 7 7 8 8 17
4 22 -4 4 7 5 23 2 17 -3 37 -2 45 4 20 12 33 11 24 -2z m431 1 c-3 -5 -12
-10 -18 -10 -7 0 -6 4 3 10 19 12 23 12 15 0z m-559 -35 c10 -8 15 -14 9 -14
-5 0 -19 6 -29 14 -11 8 -15 15 -10 15 6 0 19 -7 30 -15z m549 5 c5 -8 11 -7
21 1 9 7 14 8 14 1 0 -6 -4 -14 -10 -17 -5 -3 -10 -13 -10 -22 0 -12 7 -14 33
-10 17 3 26 3 20 0 -7 -2 -13 -11 -13 -18 0 -8 -8 -12 -22 -9 l-23 5 23 -12
c18 -10 22 -18 17 -41 -6 -26 0 -33 27 -29 4 0 5 -6 2 -14 -4 -11 1 -15 17
-15 22 -1 22 -2 6 -11 -10 -6 -25 -8 -34 -5 -9 4 -24 -2 -35 -13 -22 -24 -23
-32 -3 -25 9 4 15 0 15 -9 0 -9 3 -22 6 -30 4 -10 -4 -21 -23 -32 l-28 -16 29
6 c26 5 27 4 13 -10 -19 -18 -47 -20 -47 -2 0 7 -13 12 -30 12 -17 0 -30 -5
-30 -12 0 -7 12 -13 26 -13 14 0 24 -5 22 -11 -2 -6 -7 -10 -11 -10 -4 1 -16
1 -27 1 -11 0 -20 5 -20 11 0 6 -7 17 -15 25 -20 20 -19 34 3 35 13 0 12 2 -5
9 -29 12 -30 24 -1 15 16 -6 20 -4 15 8 -3 9 -1 18 6 21 7 3 3 4 -7 3 -10 -1
-21 4 -23 11 -3 7 3 12 14 12 12 0 19 7 19 20 0 14 -5 19 -16 15 -9 -3 -8 1 4
10 19 15 19 16 -10 47 -24 27 -25 29 -3 10 25 -22 59 -22 59 0 0 5 5 6 10 3 6
-4 7 -11 4 -17 -4 -7 -2 -8 4 -4 22 13 12 32 -23 45 -24 8 -35 19 -35 32 0 10
5 19 10 19 6 0 10 -7 10 -17 0 -9 3 -14 6 -10 4 3 13 -1 21 -9 8 -8 19 -11 25
-8 6 4 7 9 1 13 -6 3 -9 16 -8 29 1 20 -2 22 -22 17 -21 -5 -23 -4 -11 9 15
18 34 20 43 6z m-300 -29 c-3 -6 -11 -8 -17 -5 -6 4 -5 9 3 15 16 10 23 4 14
-10z m-200 -21 c3 -5 1 -10 -4 -10 -6 0 -11 5 -11 10 0 6 2 10 4 10 3 0 8 -4
11 -10z m595 -10 c0 -5 -5 -10 -11 -10 -5 0 -7 5 -4 10 3 6 8 10 11 10 2 0 4
-4 4 -10z m-2850 -24 c0 -3 -4 -8 -10 -11 -5 -3 -10 -1 -10 4 0 6 5 11 10 11
6 0 10 -2 10 -4z m2840 -6 c0 -5 -4 -10 -9 -10 -6 0 -13 5 -16 10 -3 6 1 10 9
10 9 0 16 -4 16 -10z m502 -2 c-9 -9 -15 -9 -24 0 -9 9 -7 12 12 12 19 0 21
-3 12 -12z m63 -2 c-20 -14 -35 -12 -35 5 0 5 12 9 27 9 26 0 26 -1 8 -14z
m-1256 -26 c-10 -7 -10 -11 0 -24 9 -11 10 -16 2 -16 -6 0 -11 5 -11 10 0 6
-7 10 -15 10 -8 0 -15 6 -15 14 0 8 11 14 26 14 17 0 22 -3 13 -8z m71 -10 c0
-5 -4 -10 -10 -10 -5 0 -10 5 -10 10 0 6 5 10 10 10 6 0 10 -4 10 -10z m420
-20 c13 -8 13 -10 -2 -10 -9 0 -20 5 -23 10 -8 13 5 13 25 0z m480 -4 c0 -2
-7 -7 -16 -10 -8 -3 -12 -2 -9 4 6 10 25 14 25 6z m-300 -56 c0 -5 -4 -10 -10
-10 -5 0 -10 5 -10 10 0 6 5 10 10 10 6 0 10 -4 10 -10z m-630 -42 c0 -6 -6
-5 -15 2 -8 7 -15 14 -15 16 0 2 7 1 15 -2 8 -4 15 -11 15 -16z m180 -59 c0
-5 -11 -9 -25 -9 -33 0 -33 15 0 16 14 1 25 -2 25 -7z m1378 -7 c2 -7 -2 -10
-12 -6 -9 3 -16 11 -16 16 0 13 23 5 28 -10z m-1455 -13 c-6 -6 -19 -9 -29 -6
-17 3 -16 5 6 14 28 12 39 8 23 -8z m67 -7 c0 -4 -6 -14 -12 -20 -10 -10 -10
-15 2 -22 10 -6 3 -7 -22 -3 -26 4 -38 2 -38 -6 0 -7 4 -10 9 -6 5 3 12 1 15
-4 4 -5 -2 -8 -11 -6 -10 2 -29 4 -43 5 -22 1 -20 3 15 18 29 12 40 22 37 35
-3 13 3 17 22 17 14 0 26 -4 26 -8z m100 -12 c0 -5 -8 -10 -17 -10 -15 0 -16
2 -3 10 19 12 20 12 20 0z m5018 3 c-10 -2 -26 -2 -35 0 -10 3 -2 5 17 5 19 0
27 -2 18 -5z m-4685 -23 c-3 -13 -14 -20 -29 -20 -28 0 -31 15 -6 29 27 16 41
13 35 -9z m54 14 c-3 -3 -12 -4 -19 -1 -8 3 -5 6 6 6 11 1 17 -2 13 -5z m-480
-50 c-3 -3 -12 -4 -19 -1 -8 3 -5 6 6 6 11 1 17 -2 13 -5z m393 -13 c0 -5 -6
-12 -12 -14 -8 -4 -4 -8 10 -12 12 -4 22 -11 22 -16 0 -17 23 -9 45 17 16 19
25 23 30 14 4 -7 2 -16 -5 -20 -8 -5 -9 -10 -2 -14 6 -3 13 -2 16 3 8 12 68
-1 73 -16 4 -12 -55 -33 -94 -33 -13 0 -23 -4 -23 -9 0 -5 8 -7 19 -4 10 3 22
0 25 -6 4 -6 17 -11 29 -12 20 -1 20 -2 -3 -9 -17 -5 -19 -8 -7 -9 12 -1 17
-9 16 -28 -1 -17 -3 -21 -6 -10 -2 9 -9 17 -14 17 -12 0 -11 -24 2 -37 5 -5 8
-34 6 -64 l-3 -54 -3 60 -3 60 -13 -45 -13 -45 4 59 c5 66 -3 107 -17 85 -4
-8 -6 -23 -3 -34 3 -11 0 -32 -6 -45 -9 -23 -10 -23 -4 7 3 17 0 42 -6 54 -8
14 -9 19 -1 15 6 -4 11 -2 11 3 0 16 -16 13 -34 -4 -8 -8 -21 -15 -28 -14 -11
0 -11 2 0 6 10 4 9 8 -4 18 -16 11 -16 14 -3 27 8 8 20 13 27 10 6 -2 12 1 12
7 0 6 -3 10 -7 10 -5 -1 -21 -1 -36 0 -24 1 -27 4 -22 21 8 26 1 25 -35 -2
-16 -12 -32 -19 -36 -16 -3 4 4 11 15 18 27 14 27 36 -1 45 -21 7 -20 8 12 15
51 11 70 11 70 1z m55 -1 c4 -6 -5 -10 -20 -10 -15 0 -24 4 -20 10 3 6 12 10
20 10 8 0 17 -4 20 -10z m-638 -6 c-3 -3 -12 -4 -19 -1 -8 3 -5 6 6 6 11 1 17
-2 13 -5z m183 -86 c0 -5 6 -6 13 -2 8 5 8 2 -2 -9 -7 -9 -19 -17 -25 -17 -8
0 -7 3 1 8 17 11 -1 36 -21 29 -9 -4 -16 -2 -16 2 0 5 -3 17 -7 27 -5 14 0 13
25 -6 18 -13 32 -28 32 -32z m938 0 c-26 -9 -26 -9 -25 -109 2 -76 5 -99 16
-99 11 0 11 -3 1 -15 -7 -8 -19 -15 -26 -15 -8 0 -14 -4 -14 -10 0 -10 13 -14
41 -11 12 1 15 -4 12 -24 -3 -15 -1 -25 6 -25 6 0 11 -4 11 -10 0 -5 -7 -10
-15 -10 -8 0 -15 -4 -15 -10 0 -5 5 -10 10 -10 6 0 10 -5 10 -10 0 -6 -8 -10
-17 -8 -14 2 -17 -3 -15 -24 4 -33 -35 -51 -50 -24 -7 13 -13 14 -23 6 -9 -8
-14 -7 -19 5 -3 8 -1 15 4 15 5 0 6 7 3 17 -4 11 -3 14 5 9 7 -4 12 -1 12 9 0
8 -11 20 -25 25 -14 5 -25 11 -25 14 0 2 -2 10 -5 18 -4 9 5 13 32 13 31 0 38
4 38 20 0 11 4 26 8 33 12 18 3 26 -57 61 -71 40 -107 91 -63 91 8 0 7 -3 -2
-9 -10 -7 -3 -16 30 -41 86 -63 119 -63 119 -1 0 33 -5 43 -27 56 l-28 16 28
-6 c22 -4 27 -2 27 15 0 16 -7 20 -32 21 -18 0 -26 3 -18 6 32 10 59 26 55 33
-2 3 10 4 28 2 l32 -5 -27 -9z m-1191 6 c-3 -3 -12 -4 -19 -1 -8 3 -5 6 6 6
11 1 17 -2 13 -5z m641 -9 c-10 -8 -78 -12 -78 -5 0 10 38 17 63 12 10 -3 16
-6 15 -7z m-838 -5 c0 -5 -8 -10 -17 -10 -15 0 -16 2 -3 10 19 12 20 12 20 0z
m314 1 c3 -4 -6 -6 -19 -3 -14 2 -25 6 -25 8 0 8 39 4 44 -5z m696 5 c0 -2 -7
-6 -15 -10 -8 -3 -15 -1 -15 4 0 6 7 10 15 10 8 0 15 -2 15 -4z m70 -6 c0 -5
-5 -10 -11 -10 -5 0 -7 5 -4 10 3 6 8 10 11 10 2 0 4 -4 4 -10z m-2770 -24 c0
-2 -9 -2 -20 1 -11 3 -20 9 -20 15 0 5 9 4 20 -2 11 -6 20 -12 20 -14z m27 18
c-3 -3 -12 -4 -19 -1 -8 3 -5 6 6 6 11 1 17 -2 13 -5z m2073 -9 c0 -8 -4 -15
-10 -15 -5 0 -7 7 -4 15 4 8 8 15 10 15 2 0 4 -7 4 -15z m-2155 -16 c-4 -6
-13 -8 -21 -5 -7 3 -16 1 -19 -4 -9 -15 -25 -12 -25 5 0 11 11 15 36 15 22 0
33 -4 29 -11z m2529 -8 c4 -5 0 -12 -6 -14 -7 -3 3 -6 22 -7 19 -1 29 -4 22
-7 -6 -2 -9 -10 -5 -16 4 -7 0 -8 -12 -3 -11 4 -25 0 -37 -11 -20 -18 -20 -17
-14 19 5 29 2 37 -12 41 -10 3 -7 5 10 6 15 0 29 -3 32 -8z m-2421 -21 c4 0 6
-6 5 -12 -2 -8 10 -14 27 -16 27 -3 44 -16 45 -34 0 -6 -26 -2 -60 9 -8 2 -17
4 -20 4 -3 0 -12 7 -21 15 -11 10 -23 12 -38 6 -26 -9 -29 -21 -9 -33 9 -6 5
-9 -13 -9 -31 0 -57 24 -39 35 9 5 9 10 1 18 -6 6 -11 16 -11 22 0 5 7 2 15
-9 9 -12 20 -16 32 -11 12 5 14 9 5 12 -28 11 1 20 35 12 21 -5 41 -9 46 -9z
m2661 -1 c-3 -5 -10 -7 -15 -3 -5 3 -7 10 -3 15 3 5 10 7 15 3 5 -3 7 -10 3
-15z m-554 1 c0 -5 -10 -10 -22 -9 -22 0 -22 1 -3 9 11 5 21 9 23 9 1 1 2 -3
2 -9z m233 -7 c-7 -2 -21 -2 -30 0 -10 3 -4 5 12 5 17 0 24 -2 18 -5z m193
-31 c-8 -54 -35 -114 -46 -107 -6 4 -2 17 9 31 11 14 23 45 27 70 3 24 9 44
11 44 3 0 3 -17 -1 -38z m-2401 8 c3 -5 1 -10 -4 -10 -6 0 -11 5 -11 10 0 6 2
10 4 10 3 0 8 -4 11 -10z m1976 0 c17 5 29 5 29 -1 0 -5 -6 -9 -12 -9 -29 0
-41 -17 -29 -39 19 -35 4 -24 -18 15 -23 39 -27 54 -10 37 7 -7 21 -8 40 -3z
m362 -39 c-15 -28 -29 -48 -31 -47 -5 6 42 96 51 96 4 0 -4 -22 -20 -49z m184
2 c-3 -10 -5 -4 -5 12 0 17 2 24 5 18 2 -7 2 -21 0 -30z m70 15 c-3 -8 -6 -5
-6 6 -1 11 2 17 5 13 3 -3 4 -12 1 -19z m-347 2 c0 -5 -2 -10 -4 -10 -3 0 -8
5 -11 10 -3 6 -1 10 4 10 6 0 11 -4 11 -10z m390 -10 c0 -5 -4 -10 -10 -10 -5
0 -10 5 -10 10 0 6 5 10 10 10 6 0 10 -4 10 -10z m-50 -142 c28 -50 36 -63 41
-68 3 -3 13 -27 22 -54 12 -35 14 -53 6 -60 -7 -8 -8 -6 -4 4 7 21 -30 60 -58
61 -17 1 -18 2 -4 6 21 6 22 -2 -7 85 -13 40 -26 96 -29 123 -5 45 -4 43 9
-15 8 -36 19 -73 24 -82z m-300 112 c-6 -11 -12 -20 -14 -20 -2 0 -2 9 1 20 3
11 9 20 15 20 5 0 4 -9 -2 -20z m-457 3 c-7 -2 -19 -2 -25 0 -7 3 -2 5 12 5
14 0 19 -2 13 -5z m822 -92 c2 -9 13 -34 24 -55 12 -21 20 -43 18 -49 -6 -19
-61 84 -64 120 -1 18 -7 41 -13 52 -5 11 -10 23 -9 28 1 10 39 -73 44 -96z m5
91 c0 -5 11 -14 24 -21 34 -19 51 -54 37 -77 -8 -15 -11 -16 -12 -4 -1 8 -1
18 -1 21 1 4 -15 25 -34 48 -20 22 -31 41 -25 41 6 0 11 -4 11 -8z m-248 -27
c-2 -15 0 -25 7 -25 6 0 11 -4 11 -10 0 -5 -11 -10 -25 -10 -21 0 -24 3 -16
18 5 9 12 25 15 35 8 26 14 21 8 -8z m125 -7 c-3 -7 -5 -2 -5 12 0 14 2 19 5
13 2 -7 2 -19 0 -25z m-581 10 c4 -6 3 -8 -4 -4 -5 3 -12 1 -14 -5 -2 -6 -11
-7 -22 -3 -19 7 -19 8 0 15 27 11 32 10 40 -3z m34 -22 c0 -3 -4 -8 -10 -11
-5 -3 -10 -1 -10 4 0 6 5 11 10 11 6 0 10 -2 10 -4z m-1830 -16 c0 -17 -47
-30 -72 -20 -22 8 -21 9 7 10 17 0 37 5 45 10 19 12 20 12 20 0z m2390 0 c0
-5 -2 -10 -4 -10 -3 0 -8 5 -11 10 -3 6 -1 10 4 10 6 0 11 -4 11 -10z m-695
-9 c-3 -5 3 -12 12 -14 10 -3 0 -5 -22 -6 -37 0 -39 1 -21 14 22 17 40 20 31
6z m-1885 -11 c0 -5 -4 -10 -10 -10 -5 0 -10 5 -10 10 0 6 5 10 10 10 6 0 10
-4 10 -10z m2022 -8 c-7 -2 -10 -8 -7 -12 3 -5 -8 -4 -25 1 -32 12 -42 24 -11
14 11 -3 22 -1 26 5 3 6 11 7 18 3 8 -5 8 -8 -1 -11z m-2139 1 c-7 -2 -21 -2
-30 0 -10 3 -4 5 12 5 17 0 24 -2 18 -5z m2697 -3 c0 -5 -4 -10 -9 -10 -6 0
-13 5 -16 10 -3 6 1 10 9 10 9 0 16 -4 16 -10z m-441 -31 c-8 -5 -21 -8 -29
-8 -9 0 -6 5 8 11 12 6 22 16 23 22 0 6 3 5 6 -3 3 -7 -1 -17 -8 -22z m342 6
c-4 -16 -6 -17 -9 -3 -2 9 -11 19 -20 21 -9 3 -5 4 9 4 21 -1 25 -5 20 -22z
m31 2 c-7 -8 -9 -17 -5 -20 3 -4 1 -7 -5 -7 -7 0 -12 2 -12 5 0 10 24 44 29
40 2 -3 -1 -11 -7 -18z m268 13 c0 -5 -4 -10 -10 -10 -5 0 -10 5 -10 10 0 6 5
10 10 10 6 0 10 -4 10 -10z m-2570 -16 c0 -5 -63 -34 -67 -30 -11 11 12 31 37
32 17 1 30 0 30 -2z m2208 -25 c-3 -8 -7 -3 -11 10 -4 17 -3 21 5 13 5 -5 8
-16 6 -23z m-2181 5 c-3 -3 -12 -4 -19 -1 -8 3 -5 6 6 6 11 1 17 -2 13 -5z
m1600 0 c-3 -3 -12 -4 -19 -1 -8 3 -5 6 6 6 11 1 17 -2 13 -5z m360 -26 c-3
-8 -6 -5 -6 6 -1 11 2 17 5 13 3 -3 4 -12 1 -19z m173 -3 c-7 -9 -15 -13 -17
-11 -6 6 20 36 26 30 2 -2 -2 -10 -9 -19z m-2384 0 c-11 -8 -27 -15 -35 -15
-9 1 -2 7 14 15 39 18 44 18 21 0z m322 3 c-9 -25 -36 -33 -64 -18 l-27 15 29
6 c47 11 66 10 62 -3z m1202 8 c0 -3 -4 -8 -10 -11 -5 -3 -10 -1 -10 4 0 6 5
11 10 11 6 0 10 -2 10 -4z m770 -6 c12 -8 9 -10 -12 -10 -16 0 -28 5 -28 10 0
13 20 13 40 0z m-2160 -10 c0 -5 -7 -10 -15 -10 -8 0 -15 5 -15 10 0 6 7 10
15 10 8 0 15 -4 15 -10z m1710 0 c13 -8 13 -10 -2 -10 -9 0 -20 5 -23 10 -8
13 5 13 25 0z m142 -2 c-9 -9 -15 -9 -24 0 -9 9 -7 12 12 12 19 0 21 -3 12
-12z m65 -4 c-3 -3 -12 -4 -19 -1 -8 3 -5 6 6 6 11 1 17 -2 13 -5z m-2114 -11
c-7 -2 -19 -2 -25 0 -7 3 -2 5 12 5 14 0 19 -2 13 -5z m106 -44 c-8 -5 -5 -10
8 -18 11 -5 22 -8 25 -6 3 3 4 -12 4 -34 -1 -25 -5 -37 -13 -34 -16 6 -46 53
-33 53 5 0 10 5 10 10 0 6 -16 10 -36 10 -19 0 -33 4 -29 9 3 5 -5 13 -17 17
-21 7 -20 9 12 14 38 6 88 -9 69 -21z m2076 21 c-27 -12 -43 -12 -25 0 8 5 22
9 30 9 10 0 8 -3 -5 -9z m102 -8 c10 -17 8 -18 -13 -14 -24 4 -30 13 -17 25
10 11 17 8 30 -11z m588 -2 c4 -6 -1 -7 -12 -3 -16 6 -16 4 2 -18 11 -13 24
-27 30 -31 6 -5 5 -12 -3 -20 -9 -9 -12 -9 -12 1 0 8 -6 11 -16 7 -9 -4 -13
-2 -8 5 3 6 -3 24 -15 40 l-22 29 25 0 c14 0 28 -4 31 -10z m-2431 -9 c6 -9
-55 -43 -63 -36 -4 5 40 44 51 45 4 0 9 -4 12 -9z m85 -7 c36 -8 42 -24 8 -24
-13 0 -28 -5 -34 -11 -6 -6 -17 -8 -23 -4 -9 6 -9 10 1 16 10 6 11 9 2 9 -7 0
-13 5 -13 10 0 12 15 13 59 4z m1366 -4 c3 -5 2 -10 -4 -10 -5 0 -13 5 -16 10
-3 6 -2 10 4 10 5 0 13 -4 16 -10z m357 -32 c-6 -6 -8 -18 -4 -27 5 -14 4 -14
-11 -2 -20 16 -22 37 -4 44 18 6 30 -4 19 -15z m882 8 c-10 -8 -21 -12 -24
-10 -5 6 21 24 34 24 6 0 1 -6 -10 -14z m-1089 -5 c-3 -6 3 -15 12 -21 17 -11
17 -11 0 -6 -10 3 -35 6 -55 6 -31 1 -34 2 -19 11 10 6 25 8 33 5 8 -3 14 -1
14 4 0 6 5 10 11 10 5 0 8 -4 4 -9z m-1865 -5 c0 -3 -4 -8 -10 -11 -5 -3 -10
-1 -10 4 0 6 5 11 10 11 6 0 10 -2 10 -4z m2886 -21 c16 -8 22 -15 14 -15 -8
0 -26 -3 -40 -6 -25 -5 -25 -5 -5 11 19 17 18 17 -20 11 -29 -5 -36 -4 -25 3
21 15 43 13 76 -4z m-103 -15 c-3 -11 -8 -18 -12 -16 -3 2 -33 -2 -66 -9 -34
-7 -67 -9 -76 -4 -23 12 -32 39 -13 39 8 0 12 -5 9 -10 -11 -18 25 -23 45 -5
10 9 22 15 27 12 4 -2 16 -2 26 2 10 4 29 8 42 9 18 1 22 -2 18 -18z m-677
-21 c19 -22 19 -22 -3 -8 -13 8 -23 17 -23 21 0 12 6 9 26 -13z m-2093 4 c-7
-2 -19 -2 -25 0 -7 3 -2 5 12 5 14 0 19 -2 13 -5z m2922 -3 c-3 -5 -11 -10
-16 -10 -6 0 -7 5 -4 10 3 6 11 10 16 10 6 0 7 -4 4 -10z m260 0 c3 -5 1 -10
-4 -10 -6 0 -11 5 -11 10 0 6 2 10 4 10 3 0 8 -4 11 -10z m35 6 c0 -3 -4 -8
-10 -11 -5 -3 -10 -1 -10 4 0 6 5 11 10 11 6 0 10 -2 10 -4z"/>
<path d="M2675 5375 c-261 -50 -546 -154 -696 -255 -121 -82 -294 -267 -406
-435 -42 -64 -65 -105 -37 -67 325 439 442 534 817 657 221 72 351 97 507 99
129 1 137 0 193 -28 40 -19 69 -42 92 -75 35 -47 89 -165 100 -217 l6 -29 -16
28 c-21 36 -36 26 -24 -15 14 -49 4 -44 -16 9 -37 99 -85 181 -125 216 -51 43
-132 67 -232 67 l-75 0 -62 -125 c-34 -69 -89 -191 -121 -273 -33 -81 -60
-142 -60 -135 0 19 -24 5 -43 -25 l-17 -27 6 30 c4 17 17 58 30 93 13 34 21
62 19 62 -2 0 -17 -25 -31 -55 -15 -30 -30 -53 -33 -50 -3 3 -13 -9 -23 -27
-45 -86 9 75 76 225 26 59 34 87 15 53 -9 -15 -13 -16 -21 -5 -7 10 -8 8 -3
-7 5 -18 2 -21 -18 -17 -13 3 -44 -4 -68 -15 -25 -11 -57 -24 -72 -27 -38 -10
-146 -67 -299 -158 -47 -28 -79 -69 -81 -104 -2 -33 -31 -68 -46 -58 -6 3 -11
1 -11 -4 0 -6 0 -14 -1 -18 0 -13 -49 -34 -61 -27 -6 4 -8 3 -5 -2 3 -6 -3
-16 -15 -23 -16 -10 -19 -10 -12 0 4 7 9 23 10 35 4 35 71 197 130 316 l53
106 103 50 c123 60 274 111 435 147 110 25 144 37 132 49 -9 9 -231 -45 -354
-85 -66 -22 -170 -64 -231 -94 l-110 -54 -66 -133 c-36 -73 -76 -160 -88 -193
-13 -33 -35 -76 -49 -95 -14 -19 -36 -50 -48 -70 -12 -19 -23 -29 -23 -21 0
11 -4 11 -23 -2 -12 -8 -37 -18 -56 -22 -31 -7 -33 -6 -26 16 27 86 133 251
227 355 30 33 62 73 73 89 l19 30 -35 -26 c-78 -60 -260 -283 -349 -430 -51
-84 -62 -116 -36 -106 8 3 17 -1 20 -9 3 -9 9 -13 13 -11 10 6 184 24 358 37
207 16 668 14 800 -3 61 -8 121 -14 135 -13 60 3 331 -17 336 -25 11 -18 -53
-21 -184 -10 -243 21 -454 31 -597 29 -137 -1 -135 -1 66 -9 193 -7 547 -32
668 -46 l55 -6 -45 -14 c-24 -8 -73 -14 -109 -15 l-65 0 60 -8 c33 -5 105 -11
160 -15 55 -3 112 -8 126 -10 16 -3 32 1 39 10 9 10 9 15 1 15 -6 0 -11 5 -11
11 0 12 49 9 67 -4 15 -10 92 10 116 30 25 23 22 35 -21 81 -29 32 -43 40 -60
35 -16 -4 -22 -1 -22 12 0 12 5 15 18 11 11 -4 10 0 -5 10 -17 12 -21 22 -17
44 8 36 -20 158 -50 224 -24 52 -42 114 -37 130 1 5 -2 12 -6 15 -14 10 -35
80 -27 92 5 8 3 9 -6 4 -10 -6 -11 -1 -6 21 4 18 3 24 -2 16 -7 -10 -12 -4
-21 20 -7 18 -19 48 -27 66 -8 18 -11 38 -8 44 4 6 2 8 -3 5 -6 -4 -16 6 -22
21 -17 40 -55 78 -104 104 -37 20 -59 23 -187 25 -88 1 -172 -4 -215 -12z
m307 -89 l33 -14 -37 5 c-45 7 -52 -11 -10 -25 21 -8 15 -9 -30 -5 -49 5 -63
2 -101 -20 -30 -18 -47 -23 -54 -16 -8 8 -13 7 -17 0 -4 -6 -12 -11 -18 -11
-15 0 -1 48 24 83 21 30 22 30 99 24 42 -4 92 -13 111 -21z m17 -62 c2 -2 -12
-4 -33 -4 -22 0 -35 4 -31 10 5 9 52 4 64 -6z m-16 -31 c-7 -2 -19 -2 -25 0
-7 3 -2 5 12 5 14 0 19 -2 13 -5z m32 -363 c-3 -5 4 -15 15 -23 37 -26 64
-130 42 -163 -15 -24 -482 -26 -482 -2 0 4 7 8 15 8 8 0 15 8 15 17 0 9 3 13
6 10 7 -7 54 42 54 56 0 19 -2 22 -18 19 -29 -6 -92 -79 -92 -106 0 -14 -5
-28 -11 -32 -17 -10 0 56 23 88 26 37 119 90 196 112 105 29 251 39 237 16z
m101 -208 c-13 -12 -18 9 -10 45 l8 38 4 -39 c2 -21 1 -41 -2 -44z m-468 -9
c-10 -2 -28 -2 -40 0 -13 2 -5 4 17 4 22 1 32 -1 23 -4z m205 -10 c-23 -2 -64
-2 -90 0 -26 2 -7 3 42 3 50 0 71 -1 48 -3z m427 -2 c0 -10 -40 -27 -85 -37
-29 -6 -28 -5 10 20 40 25 75 34 75 17z m109 -173 c-7 -17 -15 -26 -17 -20 -2
7 -12 12 -23 12 -10 0 -19 5 -19 10 0 6 13 10 28 10 26 0 28 2 25 38 -3 36 -3
36 8 9 8 -21 8 -36 -2 -59z"/>
<path d="M3110 5360 c8 -5 20 -10 25 -10 6 0 3 5 -5 10 -8 5 -19 10 -25 10 -5
0 -3 -5 5 -10z"/>
<path d="M3150 5332 c0 -5 9 -19 20 -32 11 -13 20 -28 20 -33 0 -6 2 -8 5 -5
7 7 -27 77 -37 78 -5 0 -8 -4 -8 -8z"/>
<path d="M3232 5190 c0 -14 2 -19 5 -12 2 6 2 18 0 25 -3 6 -5 1 -5 -13z"/>
<path d="M1435 4530 c-4 -6 -18 -15 -32 -21 -19 -7 -23 -14 -17 -32 9 -29 10
-30 24 -22 14 9 43 75 37 82 -3 2 -8 -1 -12 -7z"/>
<path d="M2048 4383 c56 -2 148 -2 205 0 56 1 10 3 -103 3 -113 0 -159 -2
-102 -3z"/>
<path d="M1747 4373 c18 -2 50 -2 70 0 21 2 7 4 -32 4 -38 0 -55 -2 -38 -4z"/>
<path d="M2423 4373 c32 -2 81 -2 110 0 29 2 3 3 -58 3 -60 0 -84 -1 -52 -3z"/>
<path d="M1603 4363 c15 -2 39 -2 55 0 15 2 2 4 -28 4 -30 0 -43 -2 -27 -4z"/>
<path d="M1420 4350 c-14 -5 9 -6 55 -3 44 3 82 7 84 9 8 8 -115 2 -139 -6z"/>
<path d="M4446 4307 c-47 -14 -38 -26 39 -50 76 -23 152 -29 159 -12 6 17 -43
49 -99 64 -47 13 -49 13 -99 -2z"/>
<path d="M3941 4306 c2 -2 76 -18 164 -36 270 -53 598 -143 683 -189 32 -17
72 -31 72 -25 0 8 -134 67 -220 97 -114 40 -333 94 -517 127 -167 30 -190 33
-182 26z"/>
<path d="M1180 4199 c-38 -63 -64 -95 -85 -104 -25 -11 -26 -14 -9 -14 11 -1
28 7 36 17 17 18 128 183 128 189 0 18 -24 -12 -70 -88z"/>
<path d="M7450 4160 c0 -5 5 -10 10 -10 6 0 10 5 10 10 0 6 -4 10 -10 10 -5 0
-10 -4 -10 -10z"/>
<path d="M8325 4140 c3 -5 10 -10 16 -10 5 0 9 5 9 10 0 6 -7 10 -16 10 -8 0
-12 -4 -9 -10z"/>
<path d="M8635 3930 c-3 -5 -1 -10 4 -10 6 0 11 5 11 10 0 6 -2 10 -4 10 -3 0
-8 -4 -11 -10z"/>
<path d="M6230 3830 c-6 -11 -8 -20 -6 -20 3 0 10 9 16 20 6 11 8 20 6 20 -3
0 -10 -9 -16 -20z"/>
<path d="M6477 3763 c-4 -3 -7 -11 -7 -17 0 -6 5 -5 12 2 6 6 9 14 7 17 -3 3
-9 2 -12 -2z"/>
<path d="M6428 4433 c7 -3 16 -2 19 1 4 3 -2 6 -13 5 -11 0 -14 -3 -6 -6z"/>
<path d="M1097 3483 c-7 -11 10 -40 18 -31 4 4 3 14 -3 24 -5 9 -12 12 -15 7z"/>
<path d="M1080 3435 c0 -8 4 -15 10 -15 5 0 7 7 4 15 -4 8 -8 15 -10 15 -2 0
-4 -7 -4 -15z"/>
<path d="M1237 3053 c-7 -39 5 -54 15 -18 4 16 4 33 -1 38 -5 5 -11 -4 -14
-20z"/>
<path d="M1215 3060 c-3 -5 -13 -6 -22 -3 -11 4 -14 3 -9 -5 10 -17 33 -15 40
3 6 17 0 20 -9 5z"/>
<path d="M3908 3396 l-28 -22 23 -85 c16 -58 35 -103 60 -137 20 -29 58 -91
84 -139 25 -49 55 -101 66 -116 38 -55 26 -19 -27 84 -30 57 -65 140 -76 184
-31 112 -70 248 -73 251 -1 1 -14 -8 -29 -20z m27 -84 c-4 -4 -10 -1 -12 6 -3
6 -9 10 -14 6 -5 -3 -9 -1 -9 5 0 5 6 11 13 14 14 5 32 -21 22 -31z"/>
<path d="M3833 3320 c-29 -36 -29 -45 4 -100 15 -25 45 -80 68 -124 44 -81
194 -261 207 -248 10 10 -85 186 -146 272 -30 42 -56 94 -72 148 -15 45 -29
82 -33 81 -3 0 -16 -13 -28 -29z"/>
<path d="M3771 3229 c-26 -43 -26 -42 5 -99 31 -56 95 -113 118 -104 9 3 16 1
16 -5 0 -6 -4 -11 -9 -11 -4 0 35 -42 88 -94 52 -52 97 -93 100 -91 2 3 -23
34 -55 70 -72 81 -99 120 -179 259 l-63 110 -21 -35z"/>
<path d="M3719 3123 c-25 -65 -23 -79 13 -104 18 -13 64 -52 102 -87 39 -36
90 -74 115 -86 26 -11 48 -24 51 -27 12 -14 69 -38 74 -31 6 10 -157 178 -232
240 -29 24 -62 61 -75 83 -26 46 -34 48 -48 12z m81 -125 c0 -10 -36 7 -45 22
-4 6 5 5 19 -2 14 -6 26 -15 26 -20z"/>
<path d="M4030 2715 c0 -9 5 -15 11 -13 6 2 11 8 11 13 0 5 -5 11 -11 13 -6 2
-11 -4 -11 -13z"/>
<path d="M4218 2643 c7 -3 16 -2 19 1 4 3 -2 6 -13 5 -11 0 -14 -3 -6 -6z"/>
<path d="M4217 2388 c-9 -36 -20 -204 -14 -198 7 6 28 212 23 218 -2 1 -6 -7
-9 -20z"/>
<path d="M5718 3423 c7 -3 16 -2 19 1 4 3 -2 6 -13 5 -11 0 -14 -3 -6 -6z"/>
<path d="M8687 2663 c-4 -3 -7 -11 -7 -17 0 -6 5 -5 12 2 6 6 9 14 7 17 -3 3
-9 2 -12 -2z"/>
<path d="M8323 2770 c-13 -5 -23 -13 -24 -17 0 -4 -2 -20 -4 -35 -4 -33 24
-40 32 -8 6 23 21 26 29 6 6 -15 -17 -66 -47 -105 -11 -13 -19 -37 -19 -52 0
-27 3 -29 39 -29 54 0 70 8 64 31 -4 13 -14 19 -36 19 l-30 0 21 23 c33 35 55
96 47 134 -3 18 -10 33 -15 33 -4 0 -14 2 -22 4 -7 3 -23 1 -35 -4z"/>
<path d="M8186 2748 c-16 -22 -21 -92 -10 -122 3 -9 15 -16 26 -16 20 0 20 0
-1 -36 -27 -45 -26 -54 2 -54 18 0 27 13 50 65 32 76 36 144 9 168 -26 23 -58
21 -76 -5z m53 -81 c-1 -23 -3 -34 -6 -24 -2 9 -9 17 -14 17 -10 0 -12 43 -3
53 14 14 24 -6 23 -46z"/>
<path d="M7341 2574 c0 -11 3 -14 6 -6 3 7 2 16 -1 19 -3 4 -6 -2 -5 -13z"/>
<path d="M8925 2390 l-30 -8 27 -1 c15 0 30 4 33 9 3 6 5 9 3 9 -2 -1 -16 -5
-33 -9z"/>
<path d="M5265 2360 c-3 -5 -1 -10 4 -10 6 0 11 5 11 10 0 6 -2 10 -4 10 -3 0
-8 -4 -11 -10z"/>
<path d="M5230 2323 c0 -6 8 -17 18 -24 16 -13 16 -13 2 6 -8 11 -16 22 -17
24 -2 2 -3 0 -3 -6z"/>
<path d="M1288 1903 c7 -3 16 -2 19 1 4 3 -2 6 -13 5 -11 0 -14 -3 -6 -6z"/>
<path d="M3688 993 c7 -3 16 -2 19 1 4 3 -2 6 -13 5 -11 0 -14 -3 -6 -6z"/>
<path d="M3740 990 c-13 -8 -12 -10 3 -10 9 0 17 5 17 10 0 12 -1 12 -20 0z"/>
<path d="M4080 890 c0 -5 7 -10 16 -10 8 0 12 5 9 10 -3 6 -10 10 -16 10 -5 0
-9 -4 -9 -10z"/>
<path d="M4148 483 c7 -3 16 -2 19 1 4 3 -2 6 -13 5 -11 0 -14 -3 -6 -6z"/>
<path d="M4570 205 c7 -8 16 -15 21 -15 5 0 9 7 9 15 0 9 -9 15 -21 15 -18 0
-19 -2 -9 -15z"/>
</g>
</svg>
